<svg xmlns="http://www.w3.org/2000/svg" xmlns:xlink="http://www.w3.org/1999/xlink" version="1.1" x="0px" y="0px" viewBox="321 398 646 48" enable-background="new 321 398 646 48" xml:space="preserve" preserveAspectRatio="xMidYMid meet"><style>.style0{fill:	#FFFFFF;}</style><g><g enable-background="new    "><path d="M321 445.9l28.4-47.9h11.2l28.9 47.9h-13.1l-6-10.5h-31.7l-6 10.5H321z M343.7 426.7h22l-11.2-20 L343.7 426.7z" class="style0"/><path d="M443.5 406.8H412v29.9h31.5v-10.2l11.8 2.4v5.6c0 4.4-0.9 7.3-2.6 8.9c-1.7 1.6-5.1 2.4-10 2.4h-29.9 c-4.8 0-8.1-0.8-9.8-2.4c-1.7-1.6-2.6-4.6-2.6-9v-25.3c0-4.4 0.9-7.3 2.6-8.9c1.7-1.6 5-2.4 9.9-2.4h29.9c4.9 0 8.3 0.8 10 2.4 c1.7 1.6 2.6 4.6 2.6 8.9v4.6l-11.8 1.7V406.8z" class="style0"/><path d="M516.4 406.8H485v29.9h31.5v-10.2l11.8 2.4v5.6c0 4.4-0.9 7.3-2.6 8.9c-1.7 1.6-5.1 2.4-10 2.4h-29.9 c-4.8 0-8.1-0.8-9.8-2.4c-1.7-1.6-2.6-4.6-2.6-9v-25.3c0-4.4 0.9-7.3 2.6-8.9c1.7-1.6 5-2.4 9.9-2.4h29.9c4.9 0 8.3 0.8 10 2.4 c1.7 1.6 2.6 4.6 2.6 8.9v4.6l-11.8 1.7V406.8z" class="style0"/><path d="M546.3 409.3c0-4.4 0.8-7.3 2.5-8.9c1.7-1.6 5-2.4 9.9-2.4h37.1c4.9 0 8.3 0.8 9.9 2.4 c1.7 1.6 2.5 4.6 2.5 8.9v25.3c0 4.4-0.9 7.4-2.6 9c-1.7 1.6-5 2.4-9.9 2.4h-37.1c-4.9 0-8.2-0.8-9.9-2.4c-1.7-1.6-2.5-4.6-2.5-9 L546.3 409.3L546.3 409.3z M557.9 436.7h38.6v-29.9h-38.6V436.7z" class="style0"/><path d="M628.4 445.9V398h43.1c3.9 0 6.8 0.7 8.6 2.2c1.8 1.5 2.7 3.8 2.7 7.1v11.3c0 3.2-0.9 5.6-2.7 7 c-1.8 1.4-4.6 2.2-8.6 2.2H665l22.8 18.1H671l-20.1-18.1h-11v18.1L628.4 445.9L628.4 445.9z M666.6 406.2h-26.7v13.3h26.7 c2 0 3.4-0.3 4.2-0.9c0.8-0.6 1.1-1.6 1.1-3v-5.5c0-1.4-0.4-2.4-1.1-3C670 406.5 668.6 406.2 666.6 406.2z" class="style0"/><path d="M702 445.9V398h32.3c9.3 0 16.4 2.1 21.3 6.2c5 4.1 7.4 10 7.4 17.6c0 8-2.6 14.1-7.9 18.1 c-5.3 4-13.2 6-23.8 6L702 445.9L702 445.9z M713.8 436.9h15c8.2 0 14-1.2 17.3-3.6c3.3-2.4 4.9-6.4 4.9-12.1 c0-4.9-1.4-8.6-4.1-11c-2.7-2.4-6.9-3.6-12.6-3.6h-20.6V436.9L713.8 436.9z" class="style0"/><path d="M780.6 445.9V398h11.6v47.9H780.6z" class="style0"/><path d="M812.5 409.3c0-4.4 0.8-7.3 2.5-8.9c1.7-1.6 5-2.4 9.9-2.4H862c4.9 0 8.2 0.8 9.9 2.4 c1.7 1.6 2.5 4.6 2.5 8.9v25.3c0 4.4-0.9 7.4-2.6 9c-1.7 1.6-5 2.4-9.9 2.4h-37.1c-4.9 0-8.2-0.8-9.9-2.4c-1.7-1.6-2.5-4.6-2.5-9 L812.5 409.3L812.5 409.3z M824.1 436.7h38.6v-29.9h-38.6L824.1 436.7L824.1 436.7z" class="style0"/><path d="M938.9 406.6h-33v10.1h31.2c4.9 0 8.2 0.8 9.9 2.4c1.7 1.6 2.5 4.5 2.5 8.9v6.6c0 4.4-0.9 7.4-2.6 9 c-1.7 1.6-5 2.4-9.8 2.4H906c-4.9 0-8.3-0.8-10-2.4c-1.8-1.6-2.6-4.6-2.6-9v-1.3l10.4-1.9v5.6H939v-11h-31c-4.9 0-8.2-0.8-10-2.4 c-1.7-1.6-2.6-4.6-2.6-8.9v-5.4c0-4.3 0.9-7.3 2.6-8.9c1.7-1.6 5-2.4 10-2.4h28.4c4.8 0 8.1 0.8 9.9 2.3c1.8 1.5 2.7 4.2 2.7 8.1 v1.2l-10.1 2.2L938.9 406.6L938.9 406.6z" class="style0"/></g><g enable-background="new    "><path d="M960 432.7c0.9 0 1.8 0.2 2.6 0.5c0.8 0.3 1.5 0.8 2.2 1.5c0.6 0.6 1.1 1.3 1.4 2.2 c0.3 0.8 0.5 1.6 0.5 2.5c0 0.9-0.2 1.8-0.5 2.6c-0.3 0.8-0.8 1.5-1.4 2.1c-0.7 0.6-1.4 1.1-2.2 1.5c-0.8 0.3-1.7 0.5-2.5 0.5 c-0.9 0-1.7-0.2-2.5-0.5c-0.8-0.3-1.5-0.8-2.2-1.5c-0.6-0.6-1.1-1.4-1.4-2.2c-0.3-0.8-0.5-1.6-0.5-2.5c0-0.9 0.2-1.7 0.5-2.5 c0.3-0.8 0.8-1.6 1.5-2.2c0.6-0.6 1.3-1.1 2.1-1.4C958.2 432.9 959.1 432.7 960 432.7z M965.8 439.4c0-0.8-0.1-1.6-0.4-2.3 c-0.3-0.7-0.7-1.3-1.2-1.9c-0.6-0.6-1.2-1-1.9-1.3c-0.7-0.3-1.5-0.4-2.2-0.4c-0.8 0-1.5 0.1-2.2 0.4c-0.7 0.3-1.3 0.7-1.8 1.2 c-0.6 0.6-1 1.2-1.3 1.9c-0.3 0.7-0.5 1.5-0.5 2.2c0 0.8 0.1 1.5 0.4 2.2c0.3 0.7 0.7 1.3 1.3 1.9c0.5 0.6 1.2 1 1.9 1.3 c0.7 0.3 1.4 0.4 2.2 0.4c0.8 0 1.5-0.1 2.2-0.4c0.7-0.3 1.3-0.7 1.9-1.3c0.5-0.5 1-1.1 1.2-1.8 C965.6 440.9 965.8 440.2 965.8 439.4z M960.1 435.4c1 0 1.8 0.2 2.4 0.5c0.5 0.3 0.8 0.9 0.8 1.5c0 0.5-0.2 1-0.5 1.3 c-0.3 0.4-0.7 0.6-1.3 0.7l1.7 3.4h-1.6l-1.5-3.2h-1.4v3.2h-1.4v-7.5L960.1 435.4L960.1 435.4z M959.9 436.4h-1.2v2.5h1.2 c0.7 0 1.2-0.1 1.5-0.3c0.3-0.2 0.4-0.5 0.4-0.9c0-0.5-0.2-0.8-0.5-1C961.1 436.5 960.6 436.4 959.9 436.4z" class="style0"/></g></g></svg>