<?xml version="1.0" encoding="UTF-8" ?>
<!DOCTYPE svg PUBLIC "-//W3C//DTD SVG 1.1//EN" "http://www.w3.org/Graphics/SVG/1.1/DTD/svg11.dtd">
<svg width="800pt" height="504pt" viewBox="0 0 800 504" version="1.1" xmlns="http://www.w3.org/2000/svg">
<path fill="#fefefe" d=" M 0.00 0.00 L 359.35 0.00 C 348.89 2.12 339.04 6.59 329.70 11.68 C 318.05 17.52 307.24 24.96 297.20 33.24 C 294.24 35.56 291.14 37.93 289.35 41.33 C 286.37 46.02 287.23 51.80 285.93 56.98 C 285.33 59.98 283.66 62.59 281.84 64.99 C 276.10 72.46 271.19 80.56 267.04 89.01 C 264.51 94.43 262.19 100.49 256.98 103.93 C 252.44 106.97 247.47 110.23 245.62 115.67 C 241.75 127.72 241.75 140.53 241.33 153.05 C 241.54 165.76 242.95 178.45 245.51 190.90 C 246.50 194.78 248.78 198.37 251.99 200.79 C 254.86 203.00 258.03 204.87 260.58 207.49 C 263.34 210.35 264.55 214.24 266.23 217.76 C 269.77 225.28 273.96 232.50 278.73 239.32 C 281.30 242.80 283.98 246.29 285.57 250.35 C 287.46 255.25 286.47 260.74 288.38 265.63 C 289.45 268.60 291.41 271.16 293.74 273.26 C 300.16 279.02 307.16 284.12 314.67 288.37 C 326.13 295.57 338.51 301.24 351.30 305.62 C 354.75 306.88 358.27 308.30 362.02 308.15 C 369.97 308.41 375.99 300.96 384.07 302.04 C 392.00 303.14 400.02 303.06 408.01 302.89 C 414.56 302.70 421.19 300.84 427.70 302.35 C 433.10 304.02 437.97 307.76 443.88 307.45 C 450.49 307.05 456.56 303.98 462.60 301.51 C 480.83 292.83 498.05 281.65 512.53 267.52 C 519.19 260.59 514.55 249.66 520.45 242.45 C 525.88 235.25 530.53 227.47 534.51 219.38 C 536.38 215.66 537.62 211.57 540.23 208.26 C 543.09 204.70 547.27 202.63 550.72 199.73 C 553.36 197.52 555.14 194.44 556.15 191.18 C 559.32 179.39 559.58 167.11 559.88 154.98 C 559.63 142.33 558.20 129.70 555.60 117.32 C 554.54 113.32 552.09 109.72 548.73 107.30 C 544.86 104.26 539.90 101.90 538.02 97.04 C 534.18 87.70 529.34 78.79 523.64 70.46 C 520.77 66.39 517.34 62.25 517.01 57.06 C 516.55 50.89 516.27 44.06 511.69 39.33 C 504.99 32.55 497.30 26.79 489.13 21.89 C 477.67 14.32 465.17 8.39 452.29 3.67 C 448.45 2.17 444.32 0.74 440.15 1.46 C 433.50 2.43 427.94 7.83 420.97 6.92 C 410.38 5.46 399.63 5.11 388.99 6.01 C 384.11 6.36 378.91 6.79 374.40 4.53 C 370.61 2.71 366.83 0.69 362.63 0.00 L 800.00 0.00 L 800.00 501.47 C 798.10 499.77 796.79 497.60 795.52 495.43 C 783.32 478.63 771.29 461.69 759.18 444.81 C 772.11 426.32 785.39 408.07 798.19 389.49 C 790.32 389.48 782.45 389.46 774.58 389.51 C 765.32 402.88 756.10 416.29 747.03 429.79 C 737.96 416.26 728.70 402.86 719.37 389.50 C 711.51 389.47 703.66 389.48 695.80 389.49 C 708.56 408.10 721.89 426.32 734.79 444.84 C 721.14 463.84 707.55 482.88 693.96 501.92 C 701.81 501.90 709.67 502.07 717.52 501.82 C 727.30 487.56 737.31 473.46 746.98 459.13 C 756.28 472.78 765.74 486.32 775.15 499.89 C 775.85 500.76 776.49 502.15 777.89 501.91 C 785.25 502.12 792.63 501.72 800.00 502.05 L 800.00 504.00 L 533.89 504.00 C 535.78 503.03 537.96 503.29 540.02 503.15 C 551.22 502.76 561.97 497.71 570.13 490.14 C 580.24 480.56 585.61 466.68 586.38 452.93 C 587.66 438.37 585.60 422.97 577.66 410.42 C 570.19 398.34 557.05 390.34 543.11 388.27 C 528.79 386.07 513.31 387.84 500.96 395.85 C 487.06 404.66 479.16 420.88 477.95 436.99 C 476.52 451.66 478.23 467.22 486.01 480.02 C 494.88 495.44 512.70 503.88 530.13 504.00 L 0.00 504.00 L 0.00 502.84 C 7.39 502.97 14.78 502.88 22.18 502.90 C 25.90 493.26 29.64 483.63 33.29 473.97 C 47.57 473.82 61.86 473.96 76.14 473.89 C 79.92 483.52 83.61 493.19 87.29 502.86 C 94.66 502.95 102.02 502.90 109.38 502.89 C 94.28 464.93 79.36 426.89 64.10 388.99 C 57.78 389.13 51.47 389.02 45.16 389.07 C 30.07 426.89 15.22 464.81 0.00 502.58 L 0.00 0.00 Z" />
<path fill="#049fde" d=" M 359.35 0.00 L 362.63 0.00 C 366.83 0.69 370.61 2.71 374.40 4.53 C 378.91 6.79 384.11 6.36 388.99 6.01 C 399.63 5.11 410.38 5.46 420.97 6.92 C 427.94 7.83 433.50 2.43 440.15 1.46 C 444.32 0.74 448.45 2.17 452.29 3.67 C 465.17 8.39 477.67 14.32 489.13 21.89 C 497.30 26.79 504.99 32.55 511.69 39.33 C 516.27 44.06 516.55 50.89 517.01 57.06 C 517.34 62.25 520.77 66.39 523.64 70.46 C 529.34 78.79 534.18 87.70 538.02 97.04 C 539.90 101.90 544.86 104.26 548.73 107.30 C 552.09 109.72 554.54 113.32 555.60 117.32 C 558.20 129.70 559.63 142.33 559.88 154.98 C 559.58 167.11 559.32 179.39 556.15 191.18 C 555.14 194.44 553.36 197.52 550.72 199.73 C 547.27 202.63 543.09 204.70 540.23 208.26 C 537.62 211.57 536.38 215.66 534.51 219.38 C 530.53 227.47 525.88 235.25 520.45 242.45 C 514.55 249.66 519.19 260.59 512.53 267.52 C 498.05 281.65 480.83 292.83 462.60 301.51 C 456.56 303.98 450.49 307.05 443.88 307.45 C 437.97 307.76 433.10 304.02 427.70 302.35 C 421.19 300.84 414.56 302.70 408.01 302.89 C 400.02 303.06 392.00 303.14 384.07 302.04 C 375.99 300.96 369.97 308.41 362.02 308.15 C 358.27 308.30 354.75 306.88 351.30 305.62 C 338.51 301.24 326.13 295.57 314.67 288.37 C 307.16 284.12 300.16 279.02 293.74 273.26 C 291.41 271.16 289.45 268.60 288.38 265.63 C 286.47 260.74 287.46 255.25 285.57 250.35 C 283.98 246.29 281.30 242.80 278.73 239.32 C 273.96 232.50 269.77 225.28 266.23 217.76 C 264.55 214.24 263.34 210.35 260.58 207.49 C 258.03 204.87 254.86 203.00 251.99 200.79 C 248.78 198.37 246.50 194.78 245.51 190.90 C 242.95 178.45 241.54 165.76 241.33 153.05 C 241.75 140.53 241.75 127.72 245.62 115.67 C 247.47 110.23 252.44 106.97 256.98 103.93 C 262.19 100.49 264.51 94.43 267.04 89.01 C 271.19 80.56 276.10 72.46 281.84 64.99 C 283.66 62.59 285.33 59.98 285.93 56.98 C 287.23 51.80 286.37 46.02 289.35 41.33 C 291.14 37.93 294.24 35.56 297.20 33.24 C 307.24 24.96 318.05 17.52 329.70 11.68 C 339.04 6.59 348.89 2.12 359.35 0.00 Z" />
<path fill="#fefefe" d=" M 386.63 23.80 C 409.88 21.43 433.78 25.14 455.04 34.92 C 474.67 43.87 492.09 57.73 505.13 74.92 C 527.04 103.17 536.40 140.70 530.40 175.94 C 525.94 204.33 511.58 231.01 490.57 250.59 C 467.88 272.09 437.26 285.09 405.99 286.13 C 375.35 287.59 344.36 277.66 320.20 258.77 C 299.83 243.11 284.23 221.33 276.00 196.99 C 267.45 172.00 266.74 144.40 273.96 118.99 C 281.58 91.72 298.37 67.10 320.98 50.06 C 339.86 35.41 362.92 26.43 386.63 23.80 Z" />
<path fill="#049fde" d=" M 362.93 42.80 C 382.46 36.22 403.72 34.87 423.92 38.94 C 446.49 43.44 467.63 54.80 483.87 71.10 C 499.30 86.37 510.29 106.02 515.41 127.11 C 500.84 133.29 494.85 149.07 485.82 160.86 C 482.45 165.02 478.01 170.30 472.00 169.13 C 467.23 167.88 463.97 163.68 461.09 159.93 C 453.99 150.37 449.02 138.96 439.58 131.33 C 433.42 126.23 424.59 124.47 417.03 127.22 C 410.90 129.35 406.10 134.03 402.19 139.05 C 395.91 147.24 391.37 156.68 384.50 164.43 C 381.43 167.80 376.61 170.57 371.99 168.75 C 366.77 166.28 363.42 161.28 360.25 156.66 C 354.24 147.86 349.50 137.80 340.95 131.09 C 334.38 125.76 324.86 124.37 317.11 127.84 C 307.90 131.91 302.27 140.77 297.12 148.99 C 292.75 155.30 289.38 162.59 283.14 167.35 C 280.16 138.48 287.90 108.57 305.24 85.21 C 319.46 65.56 339.94 50.53 362.93 42.80 Z" />
<path fill="#049fde" d=" M 317.23 144.17 C 320.42 140.51 325.93 137.86 330.57 140.48 C 336.94 144.44 340.65 151.23 344.63 157.35 C 349.86 165.50 354.83 174.49 363.42 179.60 C 371.47 184.51 382.38 183.65 389.73 177.80 C 400.95 169.23 405.79 155.27 415.00 144.94 C 417.69 142.24 420.83 139.24 424.94 139.43 C 428.74 139.53 431.59 142.33 434.14 144.82 C 443.68 155.43 448.53 170.00 460.40 178.53 C 468.44 184.47 480.21 184.11 488.00 177.92 C 499.09 169.29 504.26 155.65 513.15 145.12 C 514.55 143.53 516.23 142.24 517.90 140.93 C 519.33 155.65 518.65 170.67 514.66 184.96 C 505.41 221.07 477.74 251.71 442.91 264.89 C 422.29 272.92 399.35 274.79 377.66 270.54 C 358.05 266.67 339.49 257.70 324.30 244.72 C 305.18 228.57 291.39 206.19 285.71 181.81 C 286.85 180.30 289.11 179.91 290.61 178.69 C 302.58 169.80 307.54 155.04 317.23 144.17 Z" />
<path fill="#535254" d=" M 500.96 395.85 C 513.31 387.84 528.79 386.07 543.11 388.27 C 557.05 390.34 570.19 398.34 577.66 410.42 C 585.60 422.97 587.66 438.37 586.38 452.93 C 585.61 466.68 580.24 480.56 570.13 490.14 C 561.97 497.71 551.22 502.76 540.02 503.15 C 537.96 503.29 535.78 503.03 533.89 504.00 L 530.13 504.00 C 512.70 503.88 494.88 495.44 486.01 480.02 C 478.23 467.22 476.52 451.66 477.95 436.99 C 479.16 420.88 487.06 404.66 500.96 395.85 Z" />
<path fill="#535254" d=" M 45.16 389.07 C 51.47 389.02 57.78 389.13 64.10 388.99 C 79.36 426.89 94.28 464.93 109.38 502.89 C 102.02 502.90 94.66 502.95 87.29 502.86 C 83.61 493.19 79.92 483.52 76.14 473.89 C 61.86 473.96 47.57 473.82 33.29 473.97 C 29.64 483.63 25.90 493.26 22.18 502.90 C 14.78 502.88 7.39 502.97 0.00 502.84 L 0.00 502.58 C 15.22 464.81 30.07 426.89 45.16 389.07 Z" />
<path fill="#535254" d=" M 695.80 389.49 C 703.66 389.48 711.51 389.47 719.37 389.50 C 728.70 402.86 737.96 416.26 747.03 429.79 C 756.10 416.29 765.32 402.88 774.58 389.51 C 782.45 389.46 790.32 389.48 798.19 389.49 C 785.39 408.07 772.11 426.32 759.18 444.81 C 771.29 461.69 783.32 478.63 795.52 495.43 C 796.79 497.60 798.10 499.77 800.00 501.47 L 800.00 502.05 C 792.63 501.72 785.25 502.12 777.89 501.91 C 776.49 502.15 775.85 500.76 775.15 499.89 C 765.74 486.32 756.28 472.78 746.98 459.13 C 737.31 473.46 727.30 487.56 717.52 501.82 C 709.67 502.07 701.81 501.90 693.96 501.92 C 707.55 482.88 721.14 463.84 734.79 444.84 C 721.89 426.32 708.56 408.10 695.80 389.49 Z" />
<path fill="#535254" d=" M 82.68 389.52 C 90.06 389.53 97.45 389.31 104.82 389.64 C 114.86 417.87 126.12 445.68 135.62 474.10 C 135.86 473.83 136.35 473.27 136.60 473.00 C 146.14 444.95 157.08 417.41 167.18 389.57 C 174.44 389.36 181.70 389.58 188.96 389.44 C 174.51 427.01 159.71 464.45 145.07 501.95 C 138.86 501.84 132.63 502.16 126.42 501.76 C 112.07 464.27 97.23 426.95 82.68 389.52 Z" />
<path fill="#535254" d=" M 197.00 389.50 C 203.85 389.45 210.70 389.52 217.55 389.45 C 217.71 426.93 217.55 464.41 217.63 501.89 C 210.76 501.99 203.89 501.93 197.02 501.93 C 196.98 464.45 197.01 426.97 197.00 389.50 Z" />
<path fill="#535254" d=" M 231.34 501.90 C 231.42 464.41 231.23 426.92 231.44 389.44 C 247.29 389.84 263.25 388.59 279.01 390.79 C 293.55 392.73 308.16 399.14 317.26 411.01 C 326.07 422.24 328.89 437.08 327.78 451.07 C 326.92 464.31 321.69 477.69 311.52 486.53 C 300.49 496.38 285.50 500.22 271.07 501.35 C 257.85 502.32 244.58 501.86 231.34 501.90 Z" />
<path fill="#535254" d=" M 325.08 389.47 C 332.38 389.51 339.69 389.44 346.99 389.51 C 355.22 416.99 364.06 444.31 370.41 472.31 C 372.34 468.86 372.37 464.73 373.49 461.00 C 378.66 437.00 385.01 413.30 391.07 389.52 C 398.12 389.44 405.18 389.51 412.24 389.48 C 419.27 417.11 426.73 444.66 432.50 472.59 C 433.98 469.22 434.47 465.54 435.44 462.01 C 441.26 437.56 449.29 413.73 456.21 389.59 C 463.57 389.36 470.93 389.52 478.29 389.50 C 466.43 426.97 454.44 464.40 442.63 501.88 C 435.78 502.01 428.93 501.91 422.08 501.94 C 416.15 478.18 410.01 454.48 404.58 430.60 C 403.55 426.65 403.00 422.56 401.51 418.74 C 395.18 446.58 388.21 474.26 381.24 501.94 C 374.41 501.94 367.59 501.94 360.76 501.94 C 348.86 464.46 336.90 426.99 325.08 389.47 Z" />
<path fill="#535254" d=" M 600.68 389.49 C 614.45 389.57 628.22 389.27 641.98 389.70 C 652.76 390.35 664.33 391.85 672.99 398.90 C 686.17 409.17 687.22 430.46 677.23 443.26 C 672.22 449.57 664.64 453.11 657.08 455.39 C 668.18 470.97 679.53 486.37 690.65 501.93 C 682.44 501.97 674.24 501.90 666.04 501.97 C 655.78 487.49 645.59 472.97 635.44 458.43 C 630.72 458.34 626.01 458.40 621.30 458.38 C 621.26 472.90 621.31 487.42 621.28 501.94 C 614.41 501.94 607.55 501.94 600.70 501.94 C 600.66 464.46 600.68 426.98 600.68 389.49 Z" />
<path fill="#fefefe" d=" M 524.46 405.64 C 534.01 403.77 544.68 405.27 552.41 411.51 C 561.06 418.65 564.81 430.13 565.33 441.02 C 566.08 452.76 564.44 465.43 557.08 475.02 C 545.50 490.23 519.46 490.38 507.52 475.52 C 501.36 467.78 498.98 457.70 498.76 447.97 C 498.42 437.40 500.12 426.24 506.35 417.43 C 510.50 411.27 517.23 407.13 524.46 405.64 Z" />
<path fill="#fefefe" d=" M 252.00 406.75 C 263.72 406.95 276.06 406.23 286.99 411.22 C 294.19 414.41 300.34 420.13 303.44 427.44 C 307.63 437.17 307.64 448.28 305.37 458.49 C 303.21 468.09 296.37 476.56 287.21 480.29 C 276.13 484.95 263.86 484.62 252.07 484.73 C 251.91 458.74 252.04 432.74 252.00 406.75 Z" />
<path fill="#fefefe" d=" M 621.22 406.88 C 629.51 406.57 637.83 406.68 646.10 407.33 C 650.85 407.78 655.84 409.23 659.19 412.81 C 663.12 417.30 663.31 424.00 661.48 429.43 C 659.89 434.12 655.53 437.24 650.99 438.73 C 641.37 441.62 631.18 441.08 621.26 441.04 C 621.28 429.65 621.35 418.26 621.22 406.88 Z" />
<path fill="#fefefe" d=" M 54.53 416.70 C 55.11 417.44 55.56 418.25 55.90 419.13 C 60.34 431.58 64.64 444.08 69.42 456.41 C 59.65 456.44 49.88 456.40 40.11 456.43 C 45.19 443.29 49.74 429.95 54.53 416.70 Z" />
</svg>
