<?xml version="1.0" encoding="utf-8"?>
<!-- Generator: Adobe Illustrator 16.0.4, SVG Export Plug-In . SVG Version: 6.00 Build 0)  -->
<!DOCTYPE svg PUBLIC "-//W3C//DTD SVG 1.1//EN" "http://www.w3.org/Graphics/SVG/1.1/DTD/svg11.dtd">
<svg version="1.1" id="Ebene_1" xmlns="http://www.w3.org/2000/svg" xmlns:xlink="http://www.w3.org/1999/xlink" x="0px" y="0px"
	 width="1170px" height="445px" viewBox="0 0 1170 445" enable-background="new 0 0 1170 445" xml:space="preserve">
<path d="M55.194,309.744c-23.076-23.186-36.358-54.275-36.358-87.243c0-61.779,50.39-112.169,112.155-112.169
	c54.101,0,100.205,39.131,113.724,90.458l0.285,0.134l0.147-0.269c-10.802-54.276-58.431-94.211-114.152-94.211
	c-63.804,0-116.096,52.265-116.096,116.056c0,33.638,14.943,65.398,40.057,87.644h0.335L55.194,309.744 M129.185,115.292
	C70.9,116.364,23.835,163.939,23.835,222.501c0,18.223,5,35.782,13.281,51.862l74.363-60.975l6.098,3.484l-81.226,59.635
	l-0.336,0.805h0.913l92.349-51.998l-0.189,18.629l-90.029,33.771c19.083,32.031,54.718,51.863,91.933,51.863
	c37.404,0,72.568-19.834,91.882-51.863l-89.978-33.771l-0.239-18.629l92.601,51.996h0.804l-0.375-0.67l-81.278-59.768l6.044-3.484
	l74.417,60.977c8.522-15.949,13.414-33.641,13.414-51.865c0-59.1-46.867-105.468-105.336-107.345l15.6,95.015l-15.933,9.382
	l-1.154-106.139l-0.468-0.537l-0.428,0.537l-11.232,100.107l-5.99-3.351L129.185,115.292z M202.221,138.744l0.146,0.401
	c5.616,5.226,10.935,10.855,15.746,16.885c14.983,18.761,22.795,42.483,22.795,66.47c0,18.898-5.049,37.123-14.084,53.607
	l1.233,2.277l-2.574,0.135c-19.74,32.967-56.005,53.738-94.492,53.738c-38.544,0-74.606-20.639-94.359-53.738l-2.428-0.135
	l1.007-2.277c-5.764-10.588-9.717-21.844-12.049-33.637l-0.226-0.27l-0.147,0.402c1.528,12.461,5.468,24.658,11.417,35.781
	c19.419,36.451,55.627,57.895,96.837,57.895c62.559,0,113.579-51.328,113.579-113.779c0-32.03-16.513-64.326-42.014-83.758
	L202.221,138.744L202.221,138.744L202.221,138.744L202.221,138.744z M130.282,139.411l-0.187-0.265l-0.201,0.265l-4.799,77.595
	l4.275,2.546L130.282,139.411z M208.505,266.324h0.43l-0.241-0.4l-68.992-46.372l-5.24,2.949L208.505,266.324z M104.686,235.77
	l-0.147,0.268l0.376-0.137l22.741-13.4l-4.033-2.277L104.686,235.77z M249.717,222.5c0,65.265-53.484,118.734-118.723,118.734
	C65.81,341.236,12.27,287.766,12.27,222.5c0-65.265,53.486-118.736,118.724-118.736C196.27,103.767,249.717,157.238,249.717,222.5"
	/>
<g>
	<path d="M492.392,211.496v54.034c0,5.037-7.075,5.266-10.692,5.496v2.285c5.174-0.229,10.326-0.686,15.502-0.686
		c5.175,0,10.351,0.457,15.525,0.686v-2.285c-5.863-0.463-10.854-1.145-10.854-8.018v-30.449c0-8.701,1.374-26.101,13.097-27.017
		c2.061-0.228,5.175,0.917,5.335,3.439c0,1.372-0.685,2.517-0.685,3.89c0,2.977,2.746,5.037,5.518,5.27
		c4.143,0,6.021-3.668,6.021-7.325c0-6.416-5.861-11.22-12.228-11.22c-8.631,0-15.341,5.95-17.768,13.963
		c0-5.035-0.501-10.073-1.029-14.88c-6.023,1.604-12.227,3.204-18.43,3.435v2.286C487.904,204.622,492.392,204.394,492.392,211.496"
		/>
	<path d="M578.573,198.214l-3.982,7.554c-3.962-3.662-8.428-6.181-14.286-6.181c-19.828,0-29.147,19.693-29.147,37.323
		c0,17.402,8.104,37.775,28.438,37.775c14.492,0,21.729-12.133,23.102-24.957h-5.861c-1.717,9.619-5.175,20.152-16.874,20.152
		c-16.393,0-18.112-20.836-18.112-32.971c0-11.453,2.772-33.661,18.272-33.661c10.852,0,16.027,9.385,17.928,18.545h2.931v-23.585
		h-2.407"/>
	<path d="M638.883,229.352v-2.059c-1.03-10.761-4.465-23.813-17.747-23.813c-12.591,0-17.743,15.34-18.27,25.872H638.883
		 M642.5,249.502h6.043c-2.243,15.342-11.196,25.184-27.063,25.184c-20.332,0-28.433-19.002-28.433-36.631
		c0-17.63,7.76-38.465,28.433-38.465c19.83,0,26.882,17.86,26.721,35.034h-45.864c0.37,14.191,2.245,35.258,20.86,35.258
		C635.104,269.881,640.965,260.031,642.5,249.502"/>
	<path d="M702.486,237.365c0-12.135-2.062-33.2-18.271-33.2c-15.501,0-17.059,21.065-17.059,32.286
		c0,11.445,1.374,33.656,17.584,33.656C701.11,270.107,702.486,249.273,702.486,237.365 M722.84,268.732v2.064
		c-6.204,0.91-12.067,1.6-18.109,3.434c-0.873-4.348-1.557-8.697-1.716-13.279c-3.619,8.014-10.51,13.279-19.486,13.279
		c-19.304,0-26.536-21.293-26.536-37.318c0-16.028,7.419-36.864,26.536-36.864c9.318,0,14.654,5.728,18.957,13.508v-29.532
		c0-7.097-4.122-8.016-10.668-8.016v-2.061l1.874-0.456c6.207-0.688,12.25-1.377,18.273-3.206v87.917
		C711.964,266.217,714.736,268.732,722.84,268.732"/>
	<path d="M776.782,229.352c-1.027-11.215-3.8-25.872-17.766-25.872c-12.57,0-16.875,14.197-18.25,24.5l-0.181,1.375h36.195
		 M780.242,249.502h6.018c-1.373,15.342-11.723,25.184-27.06,25.184c-20.173,0-28.62-19.002-28.62-36.631
		c0-17.63,7.944-38.465,28.62-38.465c19.986,0,26.882,17.86,26.882,35.034h-45.838c-0.184,14.191,2.402,35.258,20.675,35.258
		C772.64,269.881,779.029,260.031,780.242,249.502"/>
	<path d="M798.671,274.686l3.436-6.408c5.016,4.123,11.564,5.951,17.931,5.951c12.248,0,23.974-8.012,23.974-21.291
		c0-10.076-6.894-15.111-15.688-18.549l-6.89-2.748c-6.206-2.287-16.208-5.723-16.208-13.967c0-8.241,6.545-13.965,14.813-13.965
		c10.691,0,14.991,8.698,16.051,18.087h2.929v-23.124h-2.426l-2.062,5.721c-4.487-2.749-9.479-4.348-14.835-4.348
		c-11.541,0-22.236,7.553-22.236,19.69c0,24.269,38.63,17.173,38.63,35.488c0,8.926-7.943,14.883-16.391,14.883
		c-12.574,0-18.09-9.389-20.679-20.377l-3.113,0.227l0.186,24.729h2.578"/>
	<rect x="850.554" y="229.123" width="27.569" height="4.811"/>
	<path d="M1007.047,229.352c-0.157-11.215-4.12-25.872-17.743-25.872c-12.411,0-16.897,14.426-18.272,24.5l-0.184,1.375h36.197
		 M1010.666,249.502h6.046c-1.375,14.881-11.909,25.873-27.225,25.184c-20.009-1.145-28.459-18.316-28.459-36.631
		c0-17.63,7.946-38.465,28.459-38.465c19.987,0,27.038,17.86,27.038,35.258h-46.019c-0.163,13.965,2.59,35.033,20.695,35.033
		C1003.271,269.881,1008.947,260.031,1010.666,249.502"/>
	<path d="M1034.293,211.722v51.52c0,6.865-5.012,7.324-11.034,7.783v2.514c5.333-0.455,10.509-0.914,15.684-0.914
		c5.172,0,10.346,0.457,15.681,0.914v-2.514c-5.858-0.461-11.035-1.145-11.035-7.783v-36.406c0-10.763,5.516-20.378,17.764-20.378
		c11.724,0,13.945,10.304,13.945,19.917v39.154c0,5.268-7.237,5.268-11.006,5.498v2.514c5.146-0.457,10.32-0.916,15.678-0.916
		c5.334,0,10.512,0.459,15.846,0.916v-2.514c-6.018-0.463-11.014-0.92-11.014-7.785V225.92c0-13.51-6.728-25.873-22.069-25.873
		c-8.61,0-15.178,4.58-19.83,11.677v-1.831c-0.16-4.118-0.505-7.783-1.029-11.678c-5.86,2.29-12.066,3.663-18.269,4.579v2.292
		C1029.645,205.083,1034.293,204.856,1034.293,211.722"/>
	<path d="M1153.74,273.084l3.619-20.607h-2.425c-3.44,9.615-7.582,17.17-18.617,17.17h-20.491l42.904-68.458h-48.953l-3.27,18.775
		h2.588c3.273-8.698,6.729-15.111,16.894-15.111h19.643l-42.742,68.229h50.851"/>
	<path d="M464.643,229.352c-0.709-11.215-3.984-25.872-17.929-25.872c-13.118,0-16.896,15.34-18.27,25.872H464.643 M468.078,249.502
		h6.043c-1.398,15.342-11.724,25.184-27.064,25.184c-20.353,0-28.436-18.77-28.436-36.631c0-17.63,7.738-38.465,28.436-38.465
		c19.989,0,26.88,17.86,26.88,35.034h-45.836c-0.186,14.191,2.403,35.258,20.674,35.258
		C460.314,269.881,467.208,260.031,468.078,249.502"/>
	<path d="M901.407,260.262c0,7.1,1.603,8.471,10.344,8.471h5.613c14.104,0,22.622-9.156,22.622-24.039
		c0-15.34-7.329-22.667-22.691-22.667h-15.888V260.262 M912.717,217.906c15.502,0,22.37-6.639,22.37-21.295
		c0-14.423-6.004-20.834-19.441-20.834H901.41v42.131L912.717,217.906L912.717,217.906z M950.978,244.006
		c0,18.314-12.779,29.078-34.919,29.078h-37.183v-2.977c10.211-0.691,12.457-2.291,12.457-10.076v-75.553
		c0-7.554-2.222-9.389-12.457-9.845v-2.977h38.257c18.481,0,28.916,8.929,28.916,24.5c0,10.763-5.079,18.087-16.136,22.895
		C942.92,221.338,950.978,230.959,950.978,244.006"/>
	<path d="M319.665,179.669l-3.616,81.05c-0.342,7.785,5.358,9.389,12.41,9.846v2.75c-4.991-0.229-9.983-0.686-14.997-0.686
		c-4.991,0-9.821,0.457-14.814,0.686v-2.75c7.075-0.457,12.066-2.061,12.41-9.846l3.801-76.696c0.503-8.247-5.359-9.39-12.409-9.616
		v-2.977c4.303,0,8.447,0.226,12.752,0.226c3.779,0,7.396-0.226,11.013-0.687l28.621,80.821l29.124-80.821l3.274,0.461
		c2.588,0,5.356,0.226,8.104,0.226c4.143,0,8.288-0.226,12.41-0.226v2.977c-7.053,0.226-12.57,1.598-12.41,9.616l1.739,76.696
		c0.345,7.785,5.151,9.389,12.572,9.846v2.75l-6.366-0.461c-3.801-0.225-7.419-0.457-11.22-0.457c-3.778,0-7.58,0.232-11.379,0.457
		l-6.205,0.461v-2.75c7.26-0.457,12.592-2.061,12.409-9.846l-1.19-81.05l-32.423,90.438h-1.876L319.665,179.669"/>
</g>
</svg>
