<?xml version="1.0" encoding="UTF-8" ?>
<!DOCTYPE svg PUBLIC "-//W3C//DTD SVG 1.1//EN" "http://www.w3.org/Graphics/SVG/1.1/DTD/svg11.dtd">
<svg width="294pt" height="160pt" viewBox="0 0 294 160" version="1.1" xmlns="http://www.w3.org/2000/svg">
<path fill="#ffffff" d=" M 0.00 0.00 L 294.00 0.00 L 294.00 160.00 L 0.00 160.00 L 0.00 0.00 Z" />
<path fill="#1f3562" d=" M 87.07 3.15 C 93.23 7.02 99.38 10.93 105.55 14.79 C 105.59 49.19 105.53 83.60 105.58 118.00 C 99.41 118.13 93.23 118.04 87.06 118.06 C 87.06 79.76 87.05 41.45 87.07 3.15 Z" />
<path fill="#1f3562" d=" M 129.68 15.71 C 134.71 13.13 140.52 13.57 145.99 13.69 C 154.57 13.92 162.98 20.33 164.26 29.03 C 164.68 34.48 164.32 39.96 164.44 45.41 C 158.69 46.11 152.94 46.76 147.19 47.44 C 147.11 42.27 147.31 37.11 147.11 31.95 C 146.74 26.42 136.77 26.48 136.56 32.06 C 136.43 54.36 136.52 76.66 136.52 98.97 C 135.93 104.93 146.27 105.69 147.08 100.06 C 147.34 92.73 147.10 85.38 147.19 78.04 C 152.94 78.56 158.69 79.09 164.44 79.64 C 164.41 86.72 164.49 93.80 164.41 100.88 C 164.26 107.65 159.46 113.69 153.36 116.31 C 148.24 118.71 142.43 118.05 136.95 117.98 C 127.74 117.49 119.03 109.62 119.20 100.09 C 119.16 77.39 119.18 54.69 119.19 31.99 C 118.97 25.07 123.49 18.58 129.68 15.71 Z" />
<path fill="#1f3562" d=" M 178.19 15.75 C 187.12 15.78 196.05 15.68 204.98 15.80 C 213.86 16.01 222.61 22.94 223.35 32.07 C 223.52 38.03 223.47 44.01 223.38 49.97 C 223.19 56.66 217.79 61.86 211.75 63.91 C 217.18 65.21 222.35 69.14 223.16 74.96 C 223.78 80.62 223.28 86.34 223.44 92.03 C 223.23 97.01 224.21 102.31 222.00 106.99 C 218.91 113.90 211.37 118.20 203.91 118.11 C 195.34 118.15 186.76 118.12 178.19 118.12 C 178.18 84.00 178.18 49.88 178.19 15.75 Z" />
<path fill="#1f3562" d=" M 233.69 118.12 C 237.65 84.00 241.62 49.87 245.62 15.75 C 253.98 15.75 262.34 15.74 270.70 15.76 C 274.67 49.88 278.66 84.00 282.62 118.12 C 276.81 118.13 271.01 118.13 265.21 118.12 C 264.78 112.08 264.34 106.04 263.92 100.00 C 260.07 100.00 256.23 99.99 252.38 100.01 C 251.96 106.05 251.53 112.08 251.09 118.12 C 245.29 118.13 239.49 118.13 233.69 118.12 Z" />
<path fill="#ffffff" d=" M 195.50 30.00 C 198.52 30.28 202.11 29.16 204.69 31.22 C 206.72 32.89 206.08 35.75 206.20 38.05 C 206.00 43.34 206.54 48.69 205.92 53.95 C 204.21 58.13 198.99 56.63 195.51 56.87 C 195.49 47.92 195.50 38.96 195.50 30.00 Z" />
<path fill="#1f3562" d=" M 53.01 30.98 C 58.72 36.68 64.42 42.38 70.12 48.09 C 70.15 60.57 70.08 73.05 70.15 85.53 C 72.56 87.89 74.96 90.25 77.28 92.69 C 77.21 101.27 77.27 109.85 77.25 118.43 C 71.54 118.44 65.83 118.44 60.12 118.43 C 60.05 103.83 60.27 89.21 60.01 74.61 C 59.59 74.86 58.76 75.37 58.35 75.63 C 56.42 77.17 54.70 78.94 53.03 80.76 C 52.96 64.17 53.01 47.57 53.01 30.98 Z" />
<path fill="#7198b2" d=" M 34.17 48.16 C 39.83 42.39 45.58 36.70 51.31 30.99 C 51.31 48.23 51.34 65.47 51.29 82.71 C 51.86 82.06 52.44 81.40 53.03 80.76 C 54.70 78.94 56.42 77.17 58.35 75.63 C 58.55 89.89 58.39 104.15 58.43 118.42 C 50.22 118.38 42.02 119.51 33.82 118.49 C 36.31 118.48 38.80 118.33 41.29 118.17 C 41.37 109.60 41.23 101.03 41.36 92.45 C 43.06 90.76 44.91 89.18 46.32 87.23 C 46.88 83.97 46.48 80.64 46.56 77.36 C 42.48 73.06 38.18 68.96 34.02 64.74 C 34.36 59.22 34.12 53.68 34.17 48.16 Z" />
<path fill="#ffffff" d=" M 256.77 43.12 C 257.46 43.12 258.86 43.13 259.56 43.14 C 260.60 57.09 261.68 71.05 262.74 85.00 C 259.68 85.00 256.62 85.00 253.56 85.00 C 254.63 71.04 255.68 57.07 256.77 43.12 Z" />
<path fill="#1f3562" d=" M 29.44 60.17 C 30.97 61.68 32.50 63.20 34.02 64.74 C 38.18 68.96 42.48 73.06 46.56 77.36 C 46.48 80.64 46.88 83.97 46.32 87.23 C 44.91 89.18 43.06 90.76 41.36 92.45 C 41.23 101.03 41.37 109.60 41.29 118.17 C 38.80 118.33 36.31 118.48 33.82 118.49 C 32.36 118.48 30.90 118.46 29.45 118.42 C 29.42 99.00 29.44 79.58 29.44 60.17 Z" />
<path fill="#7198b2" d=" M 10.66 77.21 C 16.39 71.56 22.03 65.83 27.74 60.18 C 27.79 79.57 27.70 98.95 27.79 118.34 C 22.08 118.54 16.35 118.40 10.64 118.42 C 10.64 104.68 10.58 90.94 10.66 77.21 Z" />
<path fill="#ffffff" d=" M 195.51 71.51 C 199.10 71.66 204.98 70.27 206.07 75.06 C 206.33 83.03 206.14 91.02 206.17 99.00 C 206.41 101.36 204.44 103.67 202.06 103.75 C 199.88 103.90 197.69 103.81 195.51 103.81 C 195.49 93.04 195.50 82.28 195.51 71.51 Z" />
<path fill="#7198b2" d=" M 9.92 124.11 C 14.26 123.80 18.61 123.97 22.96 123.94 C 109.63 123.95 196.30 123.92 282.97 123.95 C 282.95 124.38 282.90 125.22 282.88 125.64 C 192.03 125.56 101.18 125.74 10.34 125.55 C 10.23 125.19 10.02 124.47 9.92 124.11 Z" />
<path fill="#1f3562" d=" M 10.25 131.13 C 13.60 131.26 17.06 130.70 20.34 131.59 C 23.44 132.58 23.73 136.89 21.22 138.70 C 24.40 140.05 24.83 145.06 21.48 146.45 C 17.89 147.70 13.98 146.92 10.25 147.11 C 10.24 141.79 10.25 136.46 10.25 131.13 Z" />
<path fill="#1f3562" d=" M 32.18 131.12 C 35.19 130.33 38.31 131.30 40.71 133.16 C 39.99 134.07 39.27 134.98 38.54 135.89 C 36.75 134.78 34.56 133.48 32.44 134.57 C 28.84 136.14 28.81 141.96 32.32 143.65 C 34.49 144.83 36.84 143.58 38.62 142.30 C 39.35 143.10 40.08 143.91 40.81 144.73 C 37.01 148.71 29.38 148.25 26.89 143.07 C 24.43 138.57 27.02 132.12 32.18 131.12 Z" />
<path fill="#1f3562" d=" M 50.31 131.13 C 53.70 131.27 57.23 130.67 60.53 131.64 C 63.51 132.71 63.75 136.94 61.25 138.68 C 64.47 140.04 64.89 145.10 61.48 146.47 C 57.91 147.69 54.02 146.93 50.31 147.11 C 50.31 141.78 50.31 136.46 50.31 131.13 Z" />
<path fill="#1f3562" d=" M 66.51 131.12 C 67.39 131.12 69.17 131.12 70.06 131.13 C 70.21 134.75 69.73 138.43 70.33 142.03 C 71.16 144.82 75.82 144.78 76.61 141.97 C 77.15 138.39 76.77 134.74 76.88 131.13 C 77.76 131.12 79.54 131.12 80.43 131.12 C 80.31 135.07 80.82 139.09 80.03 143.00 C 78.52 148.93 68.23 148.91 66.81 142.93 C 66.16 139.03 66.63 135.05 66.51 131.12 Z" />
<path fill="#1f3562" d=" M 84.07 131.12 C 85.25 131.12 86.44 131.13 87.63 131.13 C 87.66 136.41 87.55 141.70 87.70 146.98 C 86.49 147.05 85.27 147.11 84.06 147.17 C 84.06 141.82 84.05 136.47 84.07 131.12 Z" />
<path fill="#1f3562" d=" M 91.57 131.12 C 92.45 131.12 94.23 131.12 95.12 131.13 C 95.13 135.37 95.12 139.62 95.13 143.87 C 97.77 143.87 100.41 143.88 103.06 143.88 C 103.06 144.69 103.06 146.31 103.06 147.12 C 99.23 147.13 95.40 147.13 91.57 147.12 C 91.56 141.79 91.56 136.45 91.57 131.12 Z" />
<path fill="#1f3562" d=" M 104.49 131.13 C 108.91 131.11 113.34 131.11 117.76 131.13 C 117.75 132.23 117.75 133.34 117.74 134.44 C 116.14 134.44 114.54 134.44 112.95 134.44 C 112.93 138.67 112.95 142.90 112.94 147.12 C 111.75 147.12 110.56 147.12 109.37 147.12 C 109.37 142.89 109.37 138.67 109.37 134.45 C 107.75 134.44 106.13 134.44 104.51 134.43 C 104.50 133.33 104.49 132.23 104.49 131.13 Z" />
<path fill="#1f3562" d=" M 149.47 138.99 C 149.19 131.51 159.23 128.29 164.21 133.23 C 163.45 134.11 162.70 135.00 161.95 135.89 C 160.15 134.66 157.79 133.43 155.67 134.69 C 152.22 136.49 152.44 142.29 156.06 143.77 C 158.17 144.75 160.35 143.53 162.04 142.32 C 162.80 143.09 163.56 143.87 164.32 144.65 C 159.53 150.23 148.83 146.74 149.47 138.99 Z" />
<path fill="#1f3562" d=" M 175.68 131.68 C 178.67 130.11 182.26 131.13 184.95 132.87 C 184.48 133.55 183.55 134.90 183.08 135.57 C 181.27 134.58 177.26 132.60 176.76 135.88 C 178.85 137.84 182.31 137.43 184.38 139.51 C 186.25 141.67 185.40 145.51 182.78 146.68 C 179.40 148.20 175.49 147.00 172.62 144.92 C 173.31 144.06 174.01 143.20 174.71 142.34 C 176.55 143.74 181.74 145.86 181.84 142.05 C 179.71 140.62 176.95 140.58 174.82 139.16 C 172.42 137.29 173.00 133.03 175.68 131.68 Z" />
<path fill="#1f3562" d=" M 187.17 131.13 C 191.62 131.12 196.07 131.11 200.51 131.14 C 200.50 132.23 200.49 133.33 200.49 134.43 C 198.87 134.44 197.25 134.44 195.63 134.45 C 195.56 138.70 195.78 142.96 195.50 147.21 C 194.64 147.18 192.92 147.12 192.06 147.09 C 192.05 142.88 192.06 138.66 192.05 134.44 C 190.43 134.44 188.81 134.44 187.20 134.44 C 187.19 133.33 187.18 132.23 187.17 131.13 Z" />
<path fill="#1f3562" d=" M 203.12 131.13 C 206.68 131.34 210.48 130.49 213.86 131.88 C 217.79 133.85 217.02 139.97 213.15 141.58 C 214.43 143.41 215.69 145.26 216.95 147.11 C 215.55 147.12 214.16 147.12 212.77 147.14 C 211.66 145.53 210.59 143.89 209.58 142.22 C 208.86 142.17 207.42 142.06 206.70 142.01 C 206.69 143.71 206.69 145.41 206.68 147.12 C 205.50 147.12 204.31 147.12 203.13 147.12 C 203.12 141.79 203.12 136.46 203.12 131.13 Z" />
<path fill="#1f3562" d=" M 225.20 131.12 C 230.99 129.36 237.28 134.97 235.63 140.94 C 234.46 147.68 224.69 149.61 220.64 144.37 C 216.87 139.95 219.39 132.18 225.20 131.12 Z" />
<path fill="#1f3562" d=" M 238.88 131.07 C 239.65 131.10 241.19 131.16 241.96 131.18 C 244.82 134.08 246.95 137.68 249.56 140.82 C 249.56 137.58 249.56 134.35 249.57 131.12 C 250.46 131.12 252.23 131.12 253.12 131.13 C 253.13 136.46 253.13 141.79 253.12 147.12 C 252.36 147.12 250.83 147.13 250.07 147.13 C 247.51 143.81 245.00 140.46 242.44 137.14 C 242.44 140.47 242.44 143.79 242.43 147.12 C 241.54 147.12 239.77 147.12 238.88 147.12 C 238.87 141.77 238.87 136.42 238.88 131.07 Z" />
<path fill="#1f3562" d=" M 260.12 132.06 C 263.46 130.08 267.87 130.69 270.91 132.98 C 270.18 133.89 269.45 134.80 268.73 135.71 C 266.87 134.62 264.55 133.46 262.45 134.68 C 259.11 136.37 259.03 141.82 262.34 143.59 C 264.00 144.60 265.95 143.98 267.71 143.65 C 267.80 143.01 267.99 141.72 268.08 141.07 C 267.16 141.05 265.34 140.99 264.42 140.96 C 264.43 140.19 264.44 138.65 264.45 137.88 C 266.75 137.87 269.06 137.87 271.37 137.88 C 271.37 140.25 271.37 142.63 271.39 145.00 C 267.82 147.78 262.32 148.45 258.75 145.33 C 254.83 141.84 255.48 134.63 260.12 132.06 Z" />
<path fill="#1f3562" d=" M 273.71 130.97 C 276.15 131.32 279.70 129.74 280.99 132.62 C 281.39 132.15 282.19 131.22 282.59 130.75 C 283.88 131.82 283.75 134.81 282.56 136.13 C 282.51 135.49 282.40 134.21 282.35 133.57 C 281.65 133.57 280.25 133.56 279.55 133.56 C 279.52 134.19 279.45 135.46 279.42 136.09 C 277.76 134.94 279.03 132.57 278.86 130.99 C 275.51 131.02 276.70 133.78 276.48 135.60 C 276.23 135.62 275.73 135.65 275.48 135.67 C 275.58 133.83 275.67 131.87 273.71 130.97 Z" />
<path fill="#1f3562" d=" M 133.75 131.14 C 137.12 131.26 140.61 130.70 143.90 131.61 C 146.98 132.65 147.18 136.92 144.70 138.72 C 147.77 139.98 148.36 144.71 145.28 146.29 C 141.67 147.83 137.57 146.87 133.75 147.11 C 133.74 141.79 133.75 136.46 133.75 131.14 Z" />
<path fill="#ffffff" d=" M 13.69 134.23 C 15.62 134.53 18.89 133.37 19.50 135.98 C 18.78 138.41 15.58 137.30 13.69 137.58 C 13.69 136.46 13.69 135.35 13.69 134.23 Z" />
<path fill="#ffffff" d=" M 53.75 134.23 C 55.89 134.35 59.60 133.51 59.63 136.68 C 57.87 137.81 55.74 137.55 53.75 137.57 C 53.75 136.46 53.75 135.35 53.75 134.23 Z" />
<path fill="#ffffff" d=" M 137.19 134.22 C 139.20 134.38 143.76 133.46 142.76 136.89 C 141.09 137.90 139.05 137.46 137.20 137.59 C 137.19 136.47 137.19 135.34 137.19 134.22 Z" />
<path fill="#ffffff" d=" M 206.69 134.36 C 208.72 134.61 211.97 133.54 212.84 136.10 C 213.23 139.61 208.91 138.81 206.69 138.89 C 206.69 137.38 206.69 135.87 206.69 134.36 Z" />
<path fill="#ffffff" d=" M 225.45 134.53 C 228.91 132.90 232.91 136.47 232.03 140.10 C 231.62 143.41 227.40 145.32 224.70 143.28 C 221.58 141.29 222.00 135.92 225.45 134.53 Z" />
<path fill="#ffffff" d=" M 13.69 140.56 C 15.87 140.89 19.24 139.57 20.38 142.09 C 19.83 145.15 15.83 143.61 13.69 144.02 C 13.69 142.86 13.69 141.71 13.69 140.56 Z" />
<path fill="#ffffff" d=" M 53.75 140.56 C 55.93 140.89 59.32 139.57 60.44 142.11 C 59.84 145.14 55.90 143.62 53.76 144.02 C 53.76 142.86 53.75 141.71 53.75 140.56 Z" />
<path fill="#ffffff" d=" M 137.21 140.55 C 139.33 140.91 143.77 139.40 143.81 142.73 C 142.43 144.88 139.31 143.69 137.17 144.00 C 137.18 142.85 137.19 141.70 137.21 140.55 Z" />
<path fill="#1f3562" d=" M 119.88 143.43 C 121.13 143.43 122.38 143.44 123.63 143.44 C 123.62 144.67 123.62 145.90 123.62 147.13 C 122.37 147.12 121.12 147.12 119.87 147.12 C 119.88 145.89 119.88 144.66 119.88 143.43 Z" />
</svg>
