<?xml version="1.0" encoding="UTF-8" ?>
<!DOCTYPE svg PUBLIC "-//W3C//DTD SVG 1.1//EN" "http://www.w3.org/Graphics/SVG/1.1/DTD/svg11.dtd">
<svg width="192pt" height="45pt" viewBox="0 0 192 45" version="1.1" xmlns="http://www.w3.org/2000/svg">
<path fill="#3fa4d1" d=" M 0.00 0.00 L 7.65 0.00 C 8.29 4.60 7.93 9.26 8.00 13.89 L 7.34 13.87 C 7.61 9.73 7.62 5.58 7.41 1.44 C 5.12 1.45 2.83 1.46 0.54 1.46 C 0.35 5.54 0.38 9.62 0.66 13.70 L 0.00 13.68 L 0.00 0.00 Z" />
<path fill="#ffffff" d=" M 7.65 0.00 L 11.00 0.00 C 11.00 0.40 11.00 1.19 11.00 1.59 C 11.02 5.64 10.94 9.69 11.03 13.74 C 11.04 16.50 10.95 19.26 11.00 22.03 C 11.02 25.12 10.99 28.22 10.98 31.31 C 11.01 35.54 11.01 39.77 11.00 44.00 C 13.66 44.00 16.33 44.00 19.00 44.00 C 18.99 39.78 19.00 35.57 19.01 31.35 C 18.99 28.92 18.94 26.49 19.05 24.07 C 19.13 23.73 19.27 23.06 19.35 22.73 C 20.31 25.59 21.29 28.44 22.38 31.26 C 23.99 35.49 25.52 39.76 27.10 44.01 C 30.07 44.00 33.04 44.00 36.00 44.00 C 36.00 39.43 35.99 34.86 36.00 30.29 C 36.01 25.18 35.99 20.07 35.99 14.96 C 35.91 9.97 36.30 4.96 35.66 0.00 L 49.95 0.00 C 45.19 0.94 41.78 5.22 41.45 9.98 C 40.70 13.66 42.57 18.94 38.04 20.65 C 38.03 21.55 38.03 22.45 38.03 23.35 C 39.24 24.33 41.31 24.94 41.03 26.89 C 41.31 31.80 40.85 37.58 44.75 41.29 C 49.09 45.49 55.60 43.61 61.00 43.99 C 61.00 41.69 61.00 39.38 61.00 37.08 C 57.77 36.89 54.28 37.22 51.32 35.66 C 49.31 32.58 50.45 28.73 49.63 25.34 C 49.00 23.91 47.65 23.03 46.56 22.00 C 47.65 20.94 48.85 19.93 49.65 18.61 C 50.42 15.25 49.33 11.45 51.25 8.38 C 54.16 6.61 57.77 7.55 61.00 7.34 C 61.00 4.89 61.00 2.45 61.00 0.00 L 64.02 0.00 C 64.04 4.93 63.99 9.87 63.99 14.80 C 63.99 17.51 63.95 20.22 63.99 22.94 C 64.03 26.77 63.99 30.59 64.00 34.42 C 64.00 37.62 64.00 40.81 64.00 44.00 C 71.00 44.00 78.00 44.00 85.00 44.00 C 85.00 42.21 85.00 40.42 85.00 38.63 C 85.00 38.16 85.00 37.22 85.00 36.75 C 80.70 36.74 76.40 36.73 72.10 36.78 C 72.08 36.20 72.04 35.06 72.01 34.48 C 71.97 30.65 71.98 26.82 72.01 22.98 C 72.05 20.29 72.01 17.59 72.00 14.90 C 71.95 9.93 72.21 4.95 71.72 0.00 L 86.02 0.00 C 86.04 4.93 85.99 9.86 86.00 14.80 C 85.99 17.24 85.98 19.68 85.97 22.12 C 86.01 25.17 85.97 28.22 85.94 31.27 C 85.96 34.52 86.17 38.02 88.24 40.70 C 89.87 43.12 92.72 44.21 95.41 45.00 L 0.00 45.00 L 0.00 44.00 C 2.67 44.00 5.34 44.00 8.00 44.00 C 8.00 39.78 7.99 35.56 8.02 31.34 C 8.00 27.99 8.00 24.64 8.03 21.29 C 8.02 18.83 8.00 16.36 8.00 13.89 C 7.93 9.26 8.29 4.60 7.65 0.00 Z" />
<path fill="#48aad5" d=" M 11.00 0.00 L 19.89 0.00 C 20.09 0.48 20.50 1.43 20.71 1.91 C 17.50 1.36 14.24 1.31 11.00 1.59 C 11.00 1.19 11.00 0.40 11.00 0.00 Z" />
<path fill="#ffffff" d=" M 19.89 0.00 L 28.02 0.00 C 28.03 4.97 28.00 9.93 28.02 14.90 C 28.00 17.10 27.95 19.31 27.87 21.51 C 27.24 19.75 26.61 17.97 25.98 16.20 C 24.24 11.43 22.45 6.68 20.71 1.91 C 20.50 1.43 20.09 0.48 19.89 0.00 Z" />
<path fill="#3fa4d1" d=" M 28.02 0.00 L 35.66 0.00 C 36.30 4.96 35.91 9.97 35.99 14.96 L 35.35 14.96 C 35.63 10.45 35.64 5.94 35.39 1.43 C 33.13 1.45 30.87 1.45 28.61 1.47 C 28.36 5.94 28.36 10.43 28.65 14.90 L 28.02 14.90 C 28.00 9.93 28.03 4.97 28.02 0.00 Z" />
<path fill="#14325c" d=" M 49.95 0.00 L 61.00 0.00 C 61.00 2.45 61.00 4.89 61.00 7.34 C 57.77 7.55 54.16 6.61 51.25 8.38 C 49.33 11.45 50.42 15.25 49.65 18.61 C 48.85 19.93 47.65 20.94 46.56 22.00 C 47.65 23.03 49.00 23.91 49.63 25.34 C 50.45 28.73 49.31 32.58 51.32 35.66 C 54.28 37.22 57.77 36.89 61.00 37.08 C 61.00 39.38 61.00 41.69 61.00 43.99 C 55.60 43.61 49.09 45.49 44.75 41.29 C 40.85 37.58 41.31 31.80 41.03 26.89 C 41.31 24.94 39.24 24.33 38.03 23.35 C 38.03 22.45 38.03 21.55 38.04 20.65 C 42.57 18.94 40.70 13.66 41.45 9.98 C 41.78 5.22 45.19 0.94 49.95 0.00 Z" />
<path fill="#3fa4d1" d=" M 64.02 0.00 L 71.72 0.00 C 72.21 4.95 71.95 9.93 72.00 14.90 L 71.43 14.85 C 71.53 10.40 71.65 5.94 71.38 1.49 C 69.13 1.47 66.87 1.45 64.62 1.43 C 64.37 5.88 64.36 10.34 64.64 14.79 L 63.99 14.80 C 63.99 9.87 64.04 4.93 64.02 0.00 Z" />
<path fill="#3fa4d1" d=" M 86.02 0.00 L 93.77 0.00 C 94.17 4.97 93.95 9.96 94.01 14.94 L 93.40 14.86 C 93.53 10.40 93.66 5.93 93.41 1.46 C 91.13 1.46 88.86 1.47 86.58 1.46 C 86.36 5.90 86.36 10.35 86.65 14.78 L 86.00 14.80 C 85.99 9.86 86.04 4.93 86.02 0.00 Z" />
<path fill="#ffffff" d=" M 93.77 0.00 L 103.02 0.00 C 103.03 4.93 103.00 9.86 102.99 14.79 C 102.99 17.20 102.95 19.61 102.99 22.02 C 103.02 25.15 103.06 28.28 102.96 31.41 C 102.73 33.39 102.79 35.83 100.94 37.09 C 99.18 37.85 96.97 37.84 95.41 36.63 C 94.23 35.16 94.23 33.18 94.04 31.39 C 93.94 28.27 93.97 25.15 94.01 22.03 C 94.05 19.67 94.03 17.31 94.01 14.94 C 93.95 9.96 94.17 4.97 93.77 0.00 Z" />
<path fill="#3fa4d1" d=" M 103.02 0.00 L 110.76 0.00 C 111.19 4.92 110.94 9.87 111.00 14.81 L 110.35 14.81 C 110.65 10.36 110.65 5.91 110.40 1.46 C 108.14 1.46 105.87 1.44 103.61 1.43 C 103.35 5.88 103.35 10.34 103.66 14.79 L 102.99 14.79 C 103.00 9.86 103.03 4.93 103.02 0.00 Z" />
<path fill="#ffffff" d=" M 110.76 0.00 L 114.03 0.00 C 114.03 3.22 113.96 6.45 114.01 9.67 C 114.03 13.17 113.98 16.66 113.96 20.15 C 114.00 23.90 114.00 27.64 114.00 31.38 C 114.01 35.59 114.00 39.79 114.00 44.00 C 119.33 43.86 124.70 44.35 130.01 43.75 C 134.90 43.07 138.07 38.56 138.89 33.96 C 139.11 26.07 139.07 18.17 138.83 10.28 C 138.45 5.69 135.37 1.86 131.24 0.00 L 142.00 0.00 L 142.00 1.25 C 142.00 5.96 142.00 10.66 142.00 15.37 C 141.99 17.91 141.95 20.45 141.99 22.99 C 142.03 26.42 141.99 29.86 141.98 33.29 C 142.00 36.86 142.01 40.43 142.00 44.00 C 149.33 44.00 156.67 44.00 164.00 44.00 C 164.00 42.20 164.00 40.40 164.00 38.61 C 164.00 38.20 164.00 37.40 164.00 37.00 C 159.31 37.03 154.62 36.90 149.94 37.12 C 149.95 35.87 149.97 34.61 149.99 33.36 C 150.01 30.43 150.00 27.50 150.04 24.56 C 153.66 23.99 157.35 24.29 161.00 24.28 C 161.00 22.40 161.00 20.53 161.00 18.66 C 161.00 18.25 161.00 17.42 161.00 17.00 C 157.37 17.00 153.73 17.00 150.10 17.01 C 150.08 16.60 150.04 15.79 150.02 15.39 C 149.98 12.68 150.00 9.97 150.02 7.26 C 154.68 7.27 159.34 7.27 164.00 7.26 C 164.00 5.26 164.00 3.26 164.00 1.25 L 164.00 0.00 L 167.03 0.00 C 166.95 3.34 166.90 6.69 167.38 10.00 C 166.89 13.46 166.93 16.94 166.98 20.42 C 167.00 23.72 166.99 27.02 166.99 30.32 C 167.02 34.88 167.00 39.44 166.99 44.00 C 172.61 43.79 178.29 44.51 183.85 43.58 C 188.32 42.57 190.99 38.34 191.88 34.11 L 192.00 33.31 L 192.00 45.00 L 101.48 45.00 C 108.07 44.12 111.82 37.51 111.07 31.26 C 111.03 28.16 110.96 25.06 111.01 21.96 C 111.04 19.58 111.02 17.19 111.00 14.81 C 110.94 9.87 111.19 4.92 110.76 0.00 Z" />
<path fill="#3fa4d1" d=" M 114.03 0.00 L 131.24 0.00 C 135.37 1.86 138.45 5.69 138.83 10.28 C 138.66 9.99 138.32 9.42 138.15 9.14 C 136.37 6.22 134.72 2.43 130.95 1.75 C 125.57 0.88 120.08 1.44 114.66 1.53 C 114.53 4.57 114.39 7.60 114.22 10.63 L 114.01 9.67 C 113.96 6.45 114.03 3.22 114.03 0.00 Z" />
<path fill="#3fa4d1" d=" M 142.00 0.00 L 164.00 0.00 L 164.00 1.25 C 156.67 1.29 149.33 1.27 142.00 1.25 L 142.00 0.00 Z" />
<path fill="#3fa4d1" d=" M 167.03 0.00 L 184.24 0.00 C 187.68 1.65 190.64 4.50 191.43 8.37 L 191.03 7.77 C 188.87 5.20 186.63 1.93 182.98 1.58 C 177.87 0.98 172.72 1.40 167.60 1.53 C 167.58 4.35 167.44 7.16 167.38 9.98 L 167.38 10.00 C 166.90 6.69 166.95 3.34 167.03 0.00 Z" />
<path fill="#ffffff" d=" M 184.24 0.00 L 192.00 0.00 L 192.00 10.68 C 191.86 10.10 191.57 8.95 191.43 8.37 C 190.64 4.50 187.68 1.65 184.24 0.00 Z" />
<path fill="#3fc2f3" d=" M 11.00 1.59 C 14.24 1.31 17.50 1.36 20.71 1.91 C 22.45 6.68 24.24 11.43 25.98 16.20 C 22.01 18.94 17.02 17.66 12.54 17.58 C 12.03 16.31 11.50 15.03 11.03 13.74 C 10.94 9.69 11.02 5.64 11.00 1.59 Z" />
<path fill="#47c4f3" d=" M 142.00 1.25 C 149.33 1.27 156.67 1.29 164.00 1.25 C 164.00 3.26 164.00 5.26 164.00 7.26 C 159.34 7.27 154.68 7.27 150.02 7.26 C 150.00 9.97 149.98 12.68 150.02 15.39 C 147.35 15.46 144.67 15.46 142.00 15.37 C 142.00 10.66 142.00 5.96 142.00 1.25 Z" />
<path fill="#44c4f3" d=" M 0.54 1.46 C 2.83 1.46 5.12 1.45 7.41 1.44 C 7.62 5.58 7.61 9.73 7.34 13.87 C 5.11 13.82 2.89 13.76 0.66 13.70 C 0.38 9.62 0.35 5.54 0.54 1.46 Z" />
<path fill="#42c3f3" d=" M 28.61 1.47 C 30.87 1.45 33.13 1.45 35.39 1.43 C 35.64 5.94 35.63 10.45 35.35 14.96 C 33.12 14.94 30.89 14.92 28.65 14.90 C 28.36 10.43 28.36 5.94 28.61 1.47 Z" />
<path fill="#42c3f3" d=" M 64.62 1.43 C 66.87 1.45 69.13 1.47 71.38 1.49 C 71.65 5.94 71.53 10.40 71.43 14.85 C 69.17 14.75 66.91 14.75 64.64 14.79 C 64.36 10.34 64.37 5.88 64.62 1.43 Z" />
<path fill="#42c3f3" d=" M 86.58 1.46 C 88.86 1.47 91.13 1.46 93.41 1.46 C 93.66 5.93 93.53 10.40 93.40 14.86 C 91.15 14.71 88.90 14.74 86.65 14.78 C 86.36 10.35 86.36 5.90 86.58 1.46 Z" />
<path fill="#42c3f3" d=" M 103.61 1.43 C 105.87 1.44 108.14 1.46 110.40 1.46 C 110.65 5.91 110.65 10.36 110.35 14.81 C 108.12 14.80 105.89 14.79 103.66 14.79 C 103.35 10.34 103.35 5.88 103.61 1.43 Z" />
<path fill="#47c4f3" d=" M 114.66 1.53 C 120.08 1.44 125.57 0.88 130.95 1.75 C 134.72 2.43 136.37 6.22 138.15 9.14 C 135.73 9.97 133.22 10.46 130.68 10.64 C 129.53 6.83 125.37 7.21 122.19 7.10 C 122.16 7.52 122.10 8.35 122.07 8.77 C 121.09 12.46 116.85 12.87 114.22 10.63 C 114.39 7.60 114.53 4.57 114.66 1.53 Z" />
<path fill="#47c4f3" d=" M 167.60 1.53 C 172.72 1.40 177.87 0.98 182.98 1.58 C 186.63 1.93 188.87 5.20 191.03 7.77 C 190.50 8.43 189.43 9.73 188.89 10.38 C 187.14 10.42 185.40 10.45 183.65 10.47 C 182.36 6.81 178.34 7.18 175.18 7.12 C 175.15 7.56 175.09 8.44 175.06 8.87 C 173.90 12.30 169.35 13.36 167.38 9.98 C 167.44 7.16 167.58 4.35 167.60 1.53 Z" />
<path fill="#ffffff" d=" M 122.19 7.10 C 125.37 7.21 129.53 6.83 130.68 10.64 C 131.23 17.53 131.03 24.44 130.87 31.34 C 130.60 32.75 130.41 34.29 129.47 35.46 C 127.29 36.94 124.51 36.61 122.02 36.89 C 122.01 35.06 122.00 33.23 122.00 31.40 C 122.00 27.58 121.97 23.77 122.01 19.96 C 122.07 16.23 121.89 12.50 122.07 8.77 C 122.10 8.35 122.16 7.52 122.19 7.10 Z" />
<path fill="#ffffff" d=" M 175.18 7.12 C 178.34 7.18 182.36 6.81 183.65 10.47 C 184.24 17.39 184.02 24.34 183.88 31.27 C 183.59 32.72 183.43 34.33 182.42 35.49 C 180.25 36.94 177.49 36.61 175.01 36.89 C 175.00 34.68 175.01 32.47 175.01 30.26 C 175.00 26.97 175.01 23.68 175.02 20.38 C 175.02 16.55 174.91 12.71 175.06 8.87 C 175.09 8.44 175.15 7.56 175.18 7.12 Z" />
<path fill="#29b9f1" d=" M 191.03 7.77 L 191.43 8.37 C 191.57 8.95 191.86 10.10 192.00 10.68 L 192.00 33.31 L 191.88 34.11 C 189.21 33.17 186.54 32.22 183.88 31.27 C 184.02 24.34 184.24 17.39 183.65 10.47 C 185.40 10.45 187.14 10.42 188.89 10.38 C 189.43 9.73 190.50 8.43 191.03 7.77 Z" />
<path fill="#34bef2" d=" M 114.22 10.63 C 116.85 12.87 121.09 12.46 122.07 8.77 C 121.89 12.50 122.07 16.23 122.01 19.96 C 121.11 21.42 120.11 23.42 118.04 23.15 C 116.01 23.42 115.12 21.38 113.96 20.15 C 113.98 16.66 114.03 13.17 114.01 9.67 L 114.22 10.63 Z" />
<path fill="#29bbf1" d=" M 138.15 9.14 C 138.32 9.42 138.66 9.99 138.83 10.28 C 139.07 18.17 139.11 26.07 138.89 33.96 C 136.21 33.09 133.54 32.22 130.87 31.34 C 131.03 24.44 131.23 17.53 130.68 10.64 C 133.22 10.46 135.73 9.97 138.15 9.14 Z" />
<path fill="#34bef2" d=" M 167.38 9.98 C 169.35 13.36 173.90 12.30 175.06 8.87 C 174.91 12.71 175.02 16.55 175.02 20.38 C 172.54 22.21 169.46 22.31 166.98 20.42 C 166.93 16.94 166.89 13.46 167.38 10.00 L 167.38 9.98 Z" />
<path fill="#2fbdf2" d=" M 0.00 13.68 L 0.66 13.70 C 2.89 13.76 5.11 13.82 7.34 13.87 L 8.00 13.89 C 8.00 16.36 8.02 18.83 8.03 21.29 C 5.71 23.71 2.36 23.59 0.00 21.29 L 0.00 13.68 Z" />
<path fill="#27b9f1" d=" M 11.03 13.74 C 11.50 15.03 12.03 16.31 12.54 17.58 C 17.02 17.66 22.01 18.94 25.98 16.20 C 26.61 17.97 27.24 19.75 27.87 21.51 C 27.95 19.31 28.00 17.10 28.02 14.90 L 28.65 14.90 C 30.89 14.92 33.12 14.94 35.35 14.96 L 35.99 14.96 C 35.99 20.07 36.01 25.18 36.00 30.29 C 31.45 30.57 26.91 30.87 22.38 31.26 C 21.29 28.44 20.31 25.59 19.35 22.73 C 19.27 23.06 19.13 23.73 19.05 24.07 C 17.14 24.64 15.14 25.46 13.11 25.05 C 12.29 24.13 11.63 23.08 11.00 22.03 C 10.95 19.26 11.04 16.50 11.03 13.74 Z" />
<path fill="#2ebcf2" d=" M 63.99 14.80 L 64.64 14.79 C 66.91 14.75 69.17 14.75 71.43 14.85 L 72.00 14.90 C 72.01 17.59 72.05 20.29 72.01 22.98 C 70.87 26.86 64.97 26.97 63.99 22.94 C 63.95 20.22 63.99 17.51 63.99 14.80 Z" />
<path fill="#2ebcf2" d=" M 86.00 14.80 L 86.65 14.78 C 88.90 14.74 91.15 14.71 93.40 14.86 L 94.01 14.94 C 94.03 17.31 94.05 19.67 94.01 22.03 C 93.07 23.46 92.05 25.36 90.03 25.11 C 87.95 25.52 87.11 23.37 85.97 22.12 C 85.98 19.68 85.99 17.24 86.00 14.80 Z" />
<path fill="#2ebcf2" d=" M 102.99 14.79 L 103.66 14.79 C 105.89 14.79 108.12 14.80 110.35 14.81 L 111.00 14.81 C 111.02 17.19 111.04 19.58 111.01 21.96 C 109.82 26.05 104.31 25.99 102.99 22.02 C 102.95 19.61 102.99 17.20 102.99 14.79 Z" />
<path fill="#2bbcf2" d=" M 142.00 15.37 C 144.67 15.46 147.35 15.46 150.02 15.39 C 150.04 15.79 150.08 16.60 150.10 17.01 L 150.19 18.00 C 153.78 18.35 157.40 18.45 161.00 18.66 C 161.00 20.53 161.00 22.40 161.00 24.28 C 157.35 24.29 153.66 23.99 150.04 24.56 C 148.13 25.13 146.27 26.57 144.20 25.94 C 143.34 25.06 142.65 24.02 141.99 22.99 C 141.95 20.45 141.99 17.91 142.00 15.37 Z" />
<path fill="#2b9fd2" d=" M 150.10 17.01 C 153.73 17.00 157.37 17.00 161.00 17.00 C 161.00 17.42 161.00 18.25 161.00 18.66 C 157.40 18.45 153.78 18.35 150.19 18.00 L 150.10 17.01 Z" />
<path fill="#1db7f1" d=" M 113.96 20.15 C 115.12 21.38 116.01 23.42 118.04 23.15 C 120.11 23.42 121.11 21.42 122.01 19.96 C 121.97 23.77 122.00 27.58 122.00 31.40 C 119.36 31.98 116.64 31.97 114.00 31.38 C 114.00 27.64 114.00 23.90 113.96 20.15 Z" />
<path fill="#1fb8f1" d=" M 166.98 20.42 C 169.46 22.31 172.54 22.21 175.02 20.38 C 175.01 23.68 175.00 26.97 175.01 30.26 C 174.01 30.91 173.02 31.60 171.95 32.14 C 170.07 32.57 168.55 31.08 166.99 30.32 C 166.99 27.02 167.00 23.72 166.98 20.42 Z" />
<path fill="#1db6f1" d=" M 0.00 21.29 C 2.36 23.59 5.71 23.71 8.03 21.29 C 8.00 24.64 8.00 27.99 8.02 31.34 C 5.63 33.50 2.52 33.39 0.00 31.50 L 0.00 21.29 Z" />
<path fill="#1ab6f1" d=" M 11.00 22.03 C 11.63 23.08 12.29 24.13 13.11 25.05 C 15.14 25.46 17.14 24.64 19.05 24.07 C 18.94 26.49 18.99 28.92 19.01 31.35 C 17.46 32.12 15.94 33.67 14.07 33.12 C 12.99 32.61 11.99 31.94 10.98 31.31 C 10.99 28.22 11.02 25.12 11.00 22.03 Z" />
<path fill="#1ab6f1" d=" M 85.97 22.12 C 87.11 23.37 87.95 25.52 90.03 25.11 C 92.05 25.36 93.07 23.46 94.01 22.03 C 93.97 25.15 93.94 28.27 94.04 31.39 C 92.50 32.18 90.97 33.78 89.10 33.14 C 87.99 32.60 86.97 31.92 85.94 31.27 C 85.97 28.22 86.01 25.17 85.97 22.12 Z" />
<path fill="#1ab6f1" d=" M 102.99 22.02 C 104.31 25.99 109.82 26.05 111.01 21.96 C 110.96 25.06 111.03 28.16 111.07 31.26 C 110.04 31.94 109.02 32.63 107.93 33.20 C 106.06 33.60 104.53 32.16 102.96 31.41 C 103.06 28.28 103.02 25.15 102.99 22.02 Z" />
<path fill="#17b5f0" d=" M 63.99 22.94 C 64.97 26.97 70.87 26.86 72.01 22.98 C 71.98 26.82 71.97 30.65 72.01 34.48 C 69.35 34.88 66.65 34.86 64.00 34.42 C 63.99 30.59 64.03 26.77 63.99 22.94 Z" />
<path fill="#17b5f0" d=" M 141.99 22.99 C 142.65 24.02 143.34 25.06 144.20 25.94 C 146.27 26.57 148.13 25.13 150.04 24.56 C 150.00 27.50 150.01 30.43 149.99 33.36 C 147.53 35.40 144.34 35.60 141.98 33.29 C 141.99 29.86 142.03 26.42 141.99 22.99 Z" />
<path fill="#0bb2f0" d=" M 22.38 31.26 C 26.91 30.87 31.45 30.57 36.00 30.29 C 35.99 34.86 36.00 39.43 36.00 44.00 C 33.04 44.00 30.07 44.00 27.10 44.01 C 25.52 39.76 23.99 35.49 22.38 31.26 Z" />
<path fill="#08b0f0" d=" M 166.99 30.32 C 168.55 31.08 170.07 32.57 171.95 32.14 C 173.02 31.60 174.01 30.91 175.01 30.26 C 175.01 32.47 175.00 34.68 175.01 36.89 C 177.49 36.61 180.25 36.94 182.42 35.49 C 183.43 34.33 183.59 32.72 183.88 31.27 C 186.54 32.22 189.21 33.17 191.88 34.11 C 190.99 38.34 188.32 42.57 183.85 43.58 C 178.29 44.51 172.61 43.79 166.99 44.00 C 167.00 39.44 167.02 34.88 166.99 30.32 Z" />
<path fill="#08b0f0" d=" M 0.00 31.50 C 2.52 33.39 5.63 33.50 8.02 31.34 C 7.99 35.56 8.00 39.78 8.00 44.00 C 5.34 44.00 2.67 44.00 0.00 44.00 L 0.00 31.50 Z" />
<path fill="#08b0f0" d=" M 10.98 31.31 C 11.99 31.94 12.99 32.61 14.07 33.12 C 15.94 33.67 17.46 32.12 19.01 31.35 C 19.00 35.57 18.99 39.78 19.00 44.00 C 16.33 44.00 13.66 44.00 11.00 44.00 C 11.01 39.77 11.01 35.54 10.98 31.31 Z" />
<path fill="#07b0f0" d=" M 85.94 31.27 C 86.97 31.92 87.99 32.60 89.10 33.14 C 90.97 33.78 92.50 32.18 94.04 31.39 C 94.23 33.18 94.23 35.16 95.41 36.63 C 96.97 37.84 99.18 37.85 100.94 37.09 C 102.79 35.83 102.73 33.39 102.96 31.41 C 104.53 32.16 106.06 33.60 107.93 33.20 C 109.02 32.63 110.04 31.94 111.07 31.26 C 111.82 37.51 108.07 44.12 101.48 45.00 L 95.41 45.00 C 92.72 44.21 89.87 43.12 88.24 40.70 C 86.17 38.02 85.96 34.52 85.94 31.27 Z" />
<path fill="#08b0f0" d=" M 114.00 31.38 C 116.64 31.97 119.36 31.98 122.00 31.40 C 122.00 33.23 122.01 35.06 122.02 36.89 C 124.51 36.61 127.29 36.94 129.47 35.46 C 130.41 34.29 130.60 32.75 130.87 31.34 C 133.54 32.22 136.21 33.09 138.89 33.96 C 138.07 38.56 134.90 43.07 130.01 43.75 C 124.70 44.35 119.33 43.86 114.00 44.00 C 114.00 39.79 114.01 35.59 114.00 31.38 Z" />
<path fill="#05b0f0" d=" M 141.98 33.29 C 144.34 35.60 147.53 35.40 149.99 33.36 C 149.97 34.61 149.95 35.87 149.94 37.12 C 154.11 39.52 159.38 37.85 164.00 38.61 C 164.00 40.40 164.00 42.20 164.00 44.00 C 156.67 44.00 149.33 44.00 142.00 44.00 C 142.01 40.43 142.00 36.86 141.98 33.29 Z" />
<path fill="#05b0f0" d=" M 64.00 34.42 C 66.65 34.86 69.35 34.88 72.01 34.48 C 72.04 35.06 72.08 36.20 72.10 36.78 L 72.20 37.91 C 76.45 38.33 80.73 38.40 85.00 38.63 C 85.00 40.42 85.00 42.21 85.00 44.00 C 78.00 44.00 71.00 44.00 64.00 44.00 C 64.00 40.81 64.00 37.62 64.00 34.42 Z" />
<path fill="#0c9ad5" d=" M 72.10 36.78 C 76.40 36.73 80.70 36.74 85.00 36.75 C 85.00 37.22 85.00 38.16 85.00 38.63 C 80.73 38.40 76.45 38.33 72.20 37.91 L 72.10 36.78 Z" />
<path fill="#0c95cf" d=" M 149.94 37.12 C 154.62 36.90 159.31 37.03 164.00 37.00 C 164.00 37.40 164.00 38.20 164.00 38.61 C 159.38 37.85 154.11 39.52 149.94 37.12 Z" />
</svg>
