<?xml version="1.0" encoding="UTF-8" ?>
<!DOCTYPE svg PUBLIC "-//W3C//DTD SVG 1.1//EN" "http://www.w3.org/Graphics/SVG/1.1/DTD/svg11.dtd">
<svg width="1669pt" height="599pt" viewBox="0 0 1669 599" version="1.1" xmlns="http://www.w3.org/2000/svg">
<path fill="#398cdb" d=" M 0.00 0.00 L 1669.00 0.00 L 1669.00 599.00 L 0.00 599.00 L 0.00 0.00 Z" />
<path fill="#fcfdff" d=" M 1248.45 114.91 C 1257.26 113.91 1266.44 113.96 1274.89 117.01 C 1285.99 120.69 1295.72 129.10 1300.07 140.08 C 1304.52 151.85 1304.62 165.02 1301.21 177.08 C 1299.38 184.01 1295.07 190.17 1289.29 194.38 C 1282.17 199.39 1273.75 202.71 1265.06 203.47 C 1259.15 203.61 1253.19 203.90 1247.32 203.13 C 1234.90 200.89 1222.36 194.02 1216.70 182.28 C 1212.12 173.32 1211.86 162.98 1212.47 153.15 C 1213.39 142.38 1218.25 131.74 1226.69 124.80 C 1232.82 119.51 1240.51 116.27 1248.45 114.91 Z" />
<path fill="#fcfdff" d=" M 583.32 114.77 C 595.05 113.44 607.51 114.92 617.69 121.29 C 626.91 126.86 633.77 136.26 635.92 146.85 C 638.48 159.22 637.79 172.69 632.06 184.11 C 625.76 195.69 612.53 201.64 599.97 203.38 C 591.66 203.66 583.08 204.31 575.05 201.70 C 565.11 198.79 555.91 192.37 550.89 183.17 C 548.14 177.88 546.49 171.98 546.35 166.00 C 546.11 156.86 545.69 147.25 549.91 138.83 C 555.66 125.48 569.13 116.63 583.32 114.77 Z" />
<path fill="#fcfdff" d=" M 1451.29 114.69 C 1460.00 113.91 1468.99 114.28 1477.23 117.51 C 1488.68 121.78 1498.63 131.10 1502.11 143.00 C 1505.53 153.98 1505.36 165.92 1502.26 176.95 C 1500.33 184.16 1495.85 190.61 1489.70 194.85 C 1482.42 199.75 1473.87 203.02 1465.07 203.52 C 1457.41 203.62 1449.53 204.19 1442.17 201.63 C 1432.09 198.44 1422.36 192.09 1417.74 182.27 C 1412.61 172.22 1412.84 160.53 1413.91 149.60 C 1416.45 131.13 1432.98 116.53 1451.29 114.69 Z" />
<path fill="#fcfdff" d=" M 170.73 123.66 C 180.02 119.66 190.52 119.52 200.37 121.04 C 219.48 124.55 234.34 142.70 234.68 162.00 C 234.76 201.31 234.60 240.62 234.76 279.92 C 238.07 277.18 240.79 273.83 243.60 270.60 C 280.24 229.54 316.77 188.40 353.42 147.36 C 361.21 138.60 368.88 129.12 379.61 123.83 C 387.74 119.83 397.04 119.87 405.87 120.51 C 420.02 122.20 432.24 132.26 438.09 145.03 C 442.66 154.43 441.93 165.40 439.66 175.31 C 437.85 182.87 432.87 189.08 427.65 194.62 C 393.45 232.40 359.55 270.45 325.29 308.18 C 327.19 311.07 329.51 313.63 331.87 316.16 C 358.95 347.04 386.05 377.92 413.21 408.73 C 423.53 420.79 434.41 432.38 444.33 444.77 C 451.14 453.39 456.82 463.72 456.44 475.03 C 456.91 491.66 446.30 507.35 431.83 514.97 C 413.32 524.84 388.46 520.02 375.06 503.86 C 338.97 462.62 302.72 421.53 266.61 380.30 C 264.33 377.49 261.95 374.74 259.16 372.42 C 252.57 379.12 246.67 386.44 240.22 393.28 C 237.87 396.12 234.29 398.79 234.68 402.92 C 234.71 427.61 234.69 452.30 234.70 476.98 C 234.82 487.49 230.52 497.81 223.61 505.64 C 206.80 525.27 172.38 525.00 155.61 505.44 C 150.49 499.43 147.03 492.08 145.39 484.38 C 144.21 479.00 144.63 473.46 144.57 468.00 C 144.58 370.00 144.58 272.00 144.58 174.00 C 144.65 166.88 143.98 159.57 146.14 152.66 C 149.61 140.05 158.47 128.69 170.73 123.66 Z" />
<path fill="#fcfdff" d=" M 583.32 221.77 C 595.75 220.29 609.20 222.87 618.88 231.20 C 628.74 239.04 634.38 251.41 634.44 263.94 C 634.45 314.98 634.45 366.02 634.43 417.05 C 634.71 423.70 635.71 430.85 639.67 436.40 C 643.26 441.17 649.99 438.74 654.74 441.29 C 662.38 444.77 664.82 453.67 666.63 461.14 C 668.81 474.23 668.37 488.68 660.98 500.17 C 656.38 508.12 648.70 514.06 639.97 516.81 C 623.98 521.81 606.38 521.08 590.64 515.51 C 576.29 510.58 564.73 499.17 558.22 485.62 C 551.09 471.82 548.18 456.32 546.67 441.01 C 546.60 433.98 545.35 427.03 545.65 420.00 C 545.69 367.97 545.66 315.94 545.66 263.92 C 545.95 254.34 549.04 244.72 555.24 237.30 C 562.02 228.58 572.43 223.18 583.32 221.77 Z" />
<path fill="#fcfdff" d=" M 748.43 225.15 C 761.39 220.70 776.15 219.62 789.01 225.02 C 799.47 229.45 806.96 239.28 809.76 250.15 C 822.41 294.15 835.57 338.00 848.07 382.04 C 849.28 379.95 850.34 377.77 851.08 375.47 C 860.68 345.52 870.76 315.73 880.50 285.83 C 883.48 277.35 885.40 268.26 890.79 260.87 C 896.41 252.70 905.83 248.18 915.18 245.76 C 928.21 242.46 942.36 246.04 953.05 253.93 C 961.45 260.43 966.44 270.23 969.49 280.20 C 979.12 310.27 988.87 340.31 998.51 370.38 C 999.68 374.39 1000.85 378.44 1002.90 382.11 C 1014.06 344.53 1025.65 307.07 1036.86 269.50 C 1041.02 256.86 1043.44 242.90 1052.83 232.82 C 1059.83 224.30 1071.34 221.18 1082.00 221.43 C 1094.57 221.25 1107.93 224.81 1116.90 234.07 C 1129.68 247.64 1131.46 268.85 1125.00 285.77 C 1102.89 344.01 1081.01 402.34 1058.95 460.60 C 1054.95 470.79 1051.43 481.17 1047.24 491.29 C 1042.49 502.33 1034.11 512.18 1022.74 516.66 C 1008.27 522.88 991.18 520.27 978.01 512.16 C 970.45 507.41 965.54 499.43 962.73 491.12 C 950.70 453.63 938.36 416.24 926.29 378.76 C 925.75 377.03 924.91 375.43 924.04 373.86 C 912.49 409.70 900.94 445.53 889.31 481.34 C 886.25 491.50 883.01 502.53 874.31 509.40 C 865.61 515.91 854.79 519.41 844.02 520.20 C 832.79 520.17 821.05 517.14 812.55 509.47 C 805.64 503.07 801.45 494.37 798.33 485.63 C 776.08 425.00 753.87 364.36 731.60 303.74 C 728.24 294.21 724.38 284.83 721.81 275.05 C 719.83 267.72 720.74 260.03 722.47 252.76 C 725.96 240.07 735.98 229.42 748.43 225.15 Z" />
<path fill="#fcfdff" d=" M 1250.31 221.69 C 1261.33 220.54 1273.01 222.52 1282.22 228.94 C 1290.14 234.58 1296.46 242.76 1298.96 252.24 C 1301.29 259.61 1300.49 267.40 1300.61 275.00 C 1300.60 320.33 1300.63 365.67 1300.60 411.00 C 1300.55 419.53 1300.83 428.89 1305.85 436.15 C 1308.75 440.28 1314.19 439.38 1318.50 440.42 C 1323.76 441.51 1327.54 445.93 1329.53 450.71 C 1336.47 466.80 1336.21 486.61 1326.41 501.50 C 1321.21 509.70 1312.57 515.38 1303.24 517.77 C 1290.93 520.99 1277.89 520.81 1265.52 518.02 C 1256.08 515.84 1246.84 511.94 1239.53 505.46 C 1227.78 495.41 1221.11 480.83 1217.19 466.16 C 1211.47 444.93 1212.27 422.77 1212.27 401.00 C 1212.26 356.67 1212.29 312.34 1212.25 268.00 C 1212.20 262.16 1212.23 256.19 1214.22 250.62 C 1219.22 235.01 1234.01 223.25 1250.31 221.69 Z" />
<path fill="#fcfdff" d=" M 1451.31 221.70 C 1462.27 220.56 1473.92 222.46 1483.09 228.86 C 1491.35 234.74 1497.99 243.29 1500.36 253.28 C 1502.04 259.04 1501.48 265.08 1501.55 271.00 C 1501.54 315.00 1501.55 359.00 1501.55 403.00 C 1501.56 412.65 1501.09 422.64 1504.45 431.85 C 1505.75 435.66 1508.77 439.42 1513.13 439.51 C 1518.63 439.76 1524.63 441.21 1527.92 446.04 C 1532.79 453.39 1534.52 462.36 1535.37 471.00 C 1535.72 482.31 1533.08 494.10 1526.20 503.28 C 1520.84 510.52 1512.86 515.63 1504.15 517.82 C 1492.41 520.82 1480.01 520.84 1468.17 518.37 C 1458.38 516.37 1448.76 512.51 1441.15 505.93 C 1428.33 495.16 1421.32 479.19 1417.50 463.24 C 1412.12 442.25 1413.59 420.44 1413.40 399.00 C 1413.40 356.67 1413.40 314.33 1413.40 272.00 C 1413.51 265.39 1412.78 258.61 1414.74 252.18 C 1419.26 235.86 1434.46 223.27 1451.31 221.70 Z" />
</svg>
