<?xml version="1.0" encoding="utf-8"?>
<!-- Generator: Adobe Illustrator 20.1.0, SVG Export Plug-In . SVG Version: 6.00 Build 0)  -->
<svg version="1.1" id="Layer_1" xmlns="http://www.w3.org/2000/svg" xmlns:xlink="http://www.w3.org/1999/xlink" x="0px" y="0px"
	 viewBox="0 0 233 45" enable-background="new 0 0 233 45" xml:space="preserve">
<g id="Layer_1_1_">
</g>
<g id="artwork">
	<g>
		<polygon fill="#FF9E16" points="205.2,22.9 210.9,16.2 205.7,8.7 196.5,8.7 		"/>
		<polygon fill="#F9BE00" points="222.2,2.9 205.2,22.9 208.9,29.1 231.3,2.9 		"/>
		<path fill="#0187D0" d="M112.7,8.7H99.8V42h12.7c12,0,19-7.1,19-16.8v-0.1C131.5,15.6,124.6,8.7,112.7,8.7 M122,25.4
			c0,5.4-3.7,8.4-9.2,8.4H109v-17h3.8C118.3,16.9,122,20,122,25.4L122,25.4z"/>
		<polygon fill="#0187D0" points="85.6,26.3 71.9,8.7 63.2,8.7 63.2,42.1 72.4,42.1 72.4,23.8 86.6,42.1 94.7,42.1 94.7,8.7 
			85.6,8.7 		"/>
		<polygon fill="#0187D0" points="208.9,29.1 217.5,42.1 228.6,42.1 215,22 		"/>
		<polygon fill="#0187D0" points="11.1,8.7 1.8,8.7 1.8,42.1 27.2,42.1 27.2,34 11.1,34 		"/>
		<polygon fill="#0187D0" points="40.2,28.9 56.2,28.9 56.2,21.6 40.2,21.6 40.2,16.6 57.8,16.6 57.8,8.7 31,8.7 31,42.1 58.1,42.1 
			58.1,34.2 40.2,34.2 		"/>
		<polyline fill="#0187D0" points="196.5,8.7 196.5,8.7 196.5,8.7 196.5,42.1 205.7,42.1 205.7,33 208.9,29.1 205.2,22.9 		"/>
		<path fill="#0187D0" d="M180.9,21.3c-4.6-1.1-5.8-1.7-5.8-3.2V18c0-1.2,1.1-2.1,3.3-2.1c3,0,6.3,1.1,9.3,3.3l4.6-6.5
			c-3.6-2.9-8-4.4-13.7-4.4c-8,0-12.9,4.5-12.9,10.7v0.1c0,6.9,5.5,8.9,12.6,10.5c4.5,1,5.6,1.8,5.6,3.2v0.1c0,1.4-1.3,2.3-3.8,2.3
			c-3.9,0-7.5-1.4-10.8-4l-5.1,6.1c4.1,3.7,9.7,5.5,15.6,5.5c8.1,0,13.5-4.1,13.5-10.9v-0.1C193.3,25.4,188.6,23,180.9,21.3"/>
		<polygon fill="#0187D0" points="143.5,28.9 159.5,28.9 159.5,21.6 143.5,21.6 143.5,16.6 161.1,16.6 161.1,8.7 134.3,8.7 
			134.3,42.1 161.4,42.1 161.4,34.2 143.5,34.2 		"/>
	</g>
</g>
</svg>
