<?xml version="1.0" encoding="UTF-8" ?>
<!DOCTYPE svg PUBLIC "-//W3C//DTD SVG 1.1//EN" "http://www.w3.org/Graphics/SVG/1.1/DTD/svg11.dtd">
<svg width="250pt" height="347pt" viewBox="0 0 250 347" version="1.1" xmlns="http://www.w3.org/2000/svg">
<path fill="#ffffff" d=" M 0.00 0.00 L 100.21 0.00 C 89.95 2.39 79.35 2.47 68.99 4.23 C 49.54 7.83 30.08 11.36 10.80 15.77 C 7.08 16.35 3.50 17.54 0.00 18.93 L 0.00 0.00 Z" />
<path fill="#403f3f" d=" M 100.21 0.00 L 114.01 0.00 C 113.23 0.44 111.68 1.32 110.90 1.77 C 115.34 1.94 119.78 2.02 124.22 2.32 C 95.36 1.02 66.65 5.49 38.46 11.23 C 28.72 13.37 18.72 14.19 9.10 16.89 L 10.80 15.77 C 30.08 11.36 49.54 7.83 68.99 4.23 C 79.35 2.47 89.95 2.39 100.21 0.00 Z" />
<path fill="#1b181b" d=" M 114.01 0.00 L 123.17 0.00 C 128.82 0.14 134.32 1.66 139.97 1.74 C 147.97 1.89 155.92 2.94 163.93 2.93 C 172.01 2.94 179.92 4.88 187.97 5.21 C 200.17 5.49 212.02 8.69 224.11 9.96 C 225.28 6.70 226.24 3.37 227.04 0.00 L 228.07 0.00 C 232.56 2.11 237.18 3.96 241.46 6.48 C 245.17 8.56 247.57 12.23 249.89 15.66 C 248.03 30.00 243.82 43.85 240.20 57.81 C 238.98 63.30 238.41 69.06 235.61 74.06 C 228.13 72.66 221.48 68.43 213.92 67.32 C 212.23 67.17 210.61 67.79 209.00 68.17 C 203.05 66.13 196.67 66.21 190.54 65.19 C 186.83 63.39 183.30 60.84 178.94 61.04 C 181.82 64.93 186.17 67.18 189.73 70.30 C 192.61 79.87 193.21 89.99 195.24 99.76 C 196.52 106.52 198.49 113.18 198.73 120.10 C 194.77 122.00 190.86 124.04 187.26 126.57 C 187.68 128.30 188.09 130.02 188.52 131.74 C 194.15 130.38 199.41 127.88 204.34 124.88 C 203.84 121.27 202.92 117.71 202.90 114.04 C 202.87 106.73 201.61 99.50 200.92 92.23 C 200.38 86.26 197.45 80.45 198.70 74.38 C 200.08 71.00 204.23 70.31 207.19 68.86 C 204.63 70.18 201.86 71.57 200.38 74.17 C 199.31 79.07 201.01 83.97 202.03 88.73 C 203.03 92.93 202.46 97.30 203.21 101.54 C 204.66 109.58 204.53 117.79 205.91 125.84 C 202.05 128.19 197.71 129.57 193.82 131.82 C 192.89 138.25 192.58 144.78 192.02 151.26 C 179.09 156.72 165.67 160.95 152.48 165.73 C 153.31 174.19 154.71 182.58 155.84 191.00 C 157.17 206.62 158.25 222.26 159.37 237.89 C 159.82 245.60 162.74 253.05 162.21 260.83 C 162.17 262.80 160.28 263.98 158.62 264.58 C 153.86 266.32 148.71 265.90 143.76 266.41 C 143.44 278.25 143.64 290.09 143.60 301.93 C 143.98 311.85 143.90 321.78 143.11 331.69 C 154.03 331.54 164.15 336.23 173.15 341.98 C 174.68 342.84 175.16 344.59 175.80 346.10 C 171.84 346.31 167.84 346.13 163.94 347.00 L 159.34 347.00 C 151.41 345.53 143.42 344.27 135.32 344.69 C 132.06 328.69 132.14 312.25 131.07 296.01 C 130.81 286.21 129.41 276.45 130.11 266.65 C 122.91 265.75 115.64 265.39 108.39 265.58 C 106.48 285.71 104.73 306.00 99.55 325.62 C 98.35 331.94 97.45 338.32 96.22 344.64 C 83.35 345.56 70.44 347.20 57.52 345.92 C 58.07 342.89 59.11 339.64 61.94 338.01 C 70.36 332.79 80.61 333.20 90.13 332.61 C 91.50 315.09 91.49 297.50 92.68 279.97 C 93.02 274.76 94.02 269.59 93.77 264.36 C 89.79 263.62 85.71 263.70 81.74 262.92 C 80.03 262.62 78.80 260.84 79.20 259.13 C 79.96 253.75 81.36 248.46 81.52 243.00 C 81.96 226.67 84.65 210.51 87.66 194.49 C 89.44 184.67 92.87 175.18 93.89 165.22 C 86.94 162.62 79.97 160.03 73.29 156.77 C 67.18 153.71 60.66 151.55 54.60 148.37 C 55.74 143.58 57.91 139.00 58.22 134.04 C 51.99 127.40 41.99 126.49 35.33 120.33 C 38.72 108.62 42.09 96.90 45.57 85.22 C 46.49 82.17 46.95 79.02 47.17 75.86 C 44.17 75.50 41.13 75.39 38.15 74.88 C 34.30 74.00 30.93 70.74 26.75 71.96 C 25.93 73.77 26.39 76.87 23.91 77.35 C 18.81 79.08 13.80 81.21 8.48 82.18 C 6.81 82.41 4.28 82.61 3.66 80.58 C 1.23 74.34 2.52 67.55 2.73 61.07 C 2.40 54.04 1.59 47.02 0.41 40.08 C -0.12 37.05 1.04 34.08 0.99 31.07 C 0.66 28.14 0.21 25.23 0.00 22.29 L 0.00 18.93 C 3.50 17.54 7.08 16.35 10.80 15.77 L 9.10 16.89 C 6.98 17.78 4.84 18.62 2.72 19.50 C 1.05 33.05 3.19 46.62 4.90 60.05 C 5.82 65.80 4.00 71.51 4.47 77.28 C 9.92 75.55 15.10 72.85 20.83 72.11 C 32.00 70.70 42.83 67.34 54.06 66.35 C 57.39 64.98 59.30 61.04 63.18 60.55 C 64.71 61.32 65.52 62.92 66.51 64.22 C 75.00 63.36 83.45 61.79 92.01 61.76 C 99.68 61.66 107.27 60.30 114.94 60.26 C 121.99 60.26 129.04 60.44 136.08 60.05 C 149.39 58.48 162.66 61.17 175.96 61.65 C 176.01 60.06 175.75 57.97 177.98 58.12 C 183.12 58.08 187.07 62.05 191.89 63.21 C 201.75 64.91 211.95 64.74 221.55 67.83 C 226.08 69.01 230.26 71.15 234.60 72.87 C 238.03 62.06 240.89 51.06 243.46 40.01 C 245.16 32.49 248.08 25.09 247.66 17.25 C 227.36 13.82 207.64 7.04 186.97 5.84 C 174.62 5.20 162.35 3.37 149.97 3.18 C 141.40 2.24 132.78 3.14 124.22 2.32 C 119.78 2.02 115.34 1.94 110.90 1.77 C 111.68 1.32 113.23 0.44 114.01 0.00 Z" />
<path fill="#ffffff" d=" M 123.17 0.00 L 227.04 0.00 C 226.24 3.37 225.28 6.70 224.11 9.96 C 212.02 8.69 200.17 5.49 187.97 5.21 C 179.92 4.88 172.01 2.94 163.93 2.93 C 155.92 2.94 147.97 1.89 139.97 1.74 C 134.32 1.66 128.82 0.14 123.17 0.00 Z" />
<path fill="#ffffff" d=" M 228.07 0.00 L 250.00 0.00 L 250.00 347.00 L 163.94 347.00 C 167.84 346.13 171.84 346.31 175.80 346.10 C 175.16 344.59 174.68 342.84 173.15 341.98 C 164.15 336.23 154.03 331.54 143.11 331.69 C 143.90 321.78 143.98 311.85 143.60 301.93 C 143.64 290.09 143.44 278.25 143.76 266.41 C 148.71 265.90 153.86 266.32 158.62 264.58 C 160.28 263.98 162.17 262.80 162.21 260.83 C 162.74 253.05 159.82 245.60 159.37 237.89 C 158.25 222.26 157.17 206.62 155.84 191.00 C 154.71 182.58 153.31 174.19 152.48 165.73 C 165.67 160.95 179.09 156.72 192.02 151.26 C 192.58 144.78 192.89 138.25 193.82 131.82 C 197.71 129.57 202.05 128.19 205.91 125.84 C 204.53 117.79 204.66 109.58 203.21 101.54 C 202.46 97.30 203.03 92.93 202.03 88.73 C 201.01 83.97 199.31 79.07 200.38 74.17 C 201.86 71.57 204.63 70.18 207.19 68.86 C 207.64 68.69 208.54 68.34 209.00 68.17 C 210.61 67.79 212.23 67.17 213.92 67.32 C 221.48 68.43 228.13 72.66 235.61 74.06 C 238.41 69.06 238.98 63.30 240.20 57.81 C 243.82 43.85 248.03 30.00 249.89 15.66 C 247.57 12.23 245.17 8.56 241.46 6.48 C 237.18 3.96 232.56 2.11 228.07 0.00 Z" />
<path fill="#fff9cb" d=" M 38.46 11.23 C 66.65 5.49 95.36 1.02 124.22 2.32 C 132.78 3.14 141.40 2.24 149.97 3.18 C 162.35 3.37 174.62 5.20 186.97 5.84 C 207.64 7.04 227.36 13.82 247.66 17.25 C 248.08 25.09 245.16 32.49 243.46 40.01 C 240.89 51.06 238.03 62.06 234.60 72.87 C 230.26 71.15 226.08 69.01 221.55 67.83 C 211.95 64.74 201.75 64.91 191.89 63.21 C 187.07 62.05 183.12 58.08 177.98 58.12 C 175.75 57.97 176.01 60.06 175.96 61.65 C 162.66 61.17 149.39 58.48 136.08 60.05 C 129.04 60.44 121.99 60.26 114.94 60.26 C 107.27 60.30 99.68 61.66 92.01 61.76 C 83.45 61.79 75.00 63.36 66.51 64.22 C 65.52 62.92 64.71 61.32 63.18 60.55 C 59.30 61.04 57.39 64.98 54.06 66.35 C 42.83 67.34 32.00 70.70 20.83 72.11 C 15.10 72.85 9.92 75.55 4.47 77.28 C 4.00 71.51 5.82 65.80 4.90 60.05 C 3.19 46.62 1.05 33.05 2.72 19.50 C 4.84 18.62 6.98 17.78 9.10 16.89 C 18.72 14.19 28.72 13.37 38.46 11.23 Z" />
<path fill="#f8ec95" d=" M 225.84 10.81 C 226.44 8.06 227.41 5.40 228.75 2.92 C 235.76 5.09 244.13 8.26 246.85 15.75 C 239.78 14.44 232.55 13.53 225.84 10.81 Z" />
<path fill="#100e13" d=" M 88.01 20.52 C 89.24 20.52 90.48 20.55 91.72 20.60 C 91.21 21.50 91.61 23.61 90.04 23.30 C 88.26 23.89 88.53 21.58 88.01 20.52 Z" />
<path fill="#211d1e" d=" M 187.57 23.65 C 191.70 20.92 196.89 21.36 201.48 22.40 C 201.37 23.93 201.26 25.46 201.15 26.99 C 197.43 26.41 193.30 24.66 189.74 26.76 C 185.46 29.30 183.33 35.55 186.05 39.93 C 187.56 42.30 190.05 44.38 192.99 44.37 C 195.25 44.40 197.64 44.18 199.52 45.70 C 196.99 47.41 194.10 49.72 190.83 48.66 C 186.13 47.15 181.44 43.34 181.25 38.06 C 181.12 32.71 182.79 26.65 187.57 23.65 Z" />
<path fill="#ffffff" d=" M 0.00 22.29 C 0.21 25.23 0.66 28.14 0.99 31.07 C 1.04 34.08 -0.12 37.05 0.41 40.08 C 1.59 47.02 2.40 54.04 2.73 61.07 C 2.52 67.55 1.23 74.34 3.66 80.58 C 4.28 82.61 6.81 82.41 8.48 82.18 C 13.80 81.21 18.81 79.08 23.91 77.35 C 26.39 76.87 25.93 73.77 26.75 71.96 C 30.93 70.74 34.30 74.00 38.15 74.88 C 41.13 75.39 44.17 75.50 47.17 75.86 C 46.95 79.02 46.49 82.17 45.57 85.22 C 42.09 96.90 38.72 108.62 35.33 120.33 C 41.99 126.49 51.99 127.40 58.22 134.04 C 57.91 139.00 55.74 143.58 54.60 148.37 C 60.66 151.55 67.18 153.71 73.29 156.77 C 79.97 160.03 86.94 162.62 93.89 165.22 C 92.87 175.18 89.44 184.67 87.66 194.49 C 84.65 210.51 81.96 226.67 81.52 243.00 C 81.36 248.46 79.96 253.75 79.20 259.13 C 78.80 260.84 80.03 262.62 81.74 262.92 C 85.71 263.70 89.79 263.62 93.77 264.36 C 94.02 269.59 93.02 274.76 92.68 279.97 C 91.49 297.50 91.50 315.09 90.13 332.61 C 80.61 333.20 70.36 332.79 61.94 338.01 C 59.11 339.64 58.07 342.89 57.52 345.92 C 70.44 347.20 83.35 345.56 96.22 344.64 C 97.45 338.32 98.35 331.94 99.55 325.62 C 104.73 306.00 106.48 285.71 108.39 265.58 C 115.64 265.39 122.91 265.75 130.11 266.65 C 129.41 276.45 130.81 286.21 131.07 296.01 C 132.14 312.25 132.06 328.69 135.32 344.69 C 143.42 344.27 151.41 345.53 159.34 347.00 L 0.00 347.00 L 0.00 22.29 Z" />
<path fill="#1a1619" d=" M 98.44 26.42 C 101.46 23.39 106.12 23.94 109.98 24.43 C 112.85 24.93 113.68 28.10 114.58 30.42 C 109.21 31.22 103.80 31.63 98.38 31.77 C 98.59 34.22 98.00 37.09 99.87 39.05 C 101.82 41.97 106.45 42.61 108.89 39.99 C 110.03 38.84 111.35 37.95 113.06 38.13 C 110.73 43.29 103.70 45.37 99.18 41.81 C 94.49 38.25 94.53 30.54 98.44 26.42 Z" />
<path fill="#191518" d=" M 121.48 24.46 C 123.57 22.65 126.28 23.79 128.50 24.63 C 128.14 25.89 127.78 27.15 127.43 28.41 C 126.20 27.69 124.96 26.99 123.72 26.30 C 122.64 27.41 121.40 28.52 121.15 30.15 C 124.04 32.55 129.27 33.37 129.45 37.96 C 130.19 41.16 127.17 44.07 124.04 43.77 C 120.61 43.67 115.30 42.13 116.02 37.74 C 118.39 39.08 120.49 41.06 123.20 41.70 C 125.59 42.22 128.51 39.51 127.25 37.13 C 125.28 34.48 121.96 33.66 119.17 32.20 C 119.08 29.48 118.70 26.05 121.48 24.46 Z" />
<path fill="#211d1f" d=" M 144.17 25.02 C 148.19 23.58 153.26 26.15 155.20 29.85 C 156.73 34.46 155.65 40.53 151.31 43.28 C 147.47 45.79 142.40 43.25 140.40 39.57 C 137.30 34.78 139.18 27.71 144.17 25.02 Z" />
<path fill="#221e1f" d=" M 28.14 26.14 C 28.67 25.86 29.73 25.28 30.26 24.99 C 31.61 34.45 33.13 43.89 34.66 53.32 C 31.30 54.01 29.95 50.78 28.31 48.60 C 24.59 43.26 20.12 38.49 15.50 33.94 C 16.07 41.09 18.04 48.03 18.94 55.14 C 17.87 55.49 16.80 55.83 15.73 56.18 C 14.01 47.55 13.24 38.76 11.94 30.06 C 13.39 29.55 14.84 29.03 16.28 28.50 C 21.53 33.11 25.85 38.60 30.50 43.77 C 29.67 37.91 28.15 32.09 28.14 26.14 Z" />
<path fill="#120e13" d=" M 89.45 26.12 C 89.99 26.11 91.06 26.09 91.59 26.08 C 92.05 32.26 92.63 38.44 92.89 44.63 C 92.39 44.64 91.39 44.67 90.90 44.68 C 90.19 38.51 89.48 32.34 89.45 26.12 Z" />
<path fill="#ffffd2" d=" M 99.19 29.78 C 100.72 28.11 102.33 25.92 104.90 26.13 C 107.15 25.98 108.60 27.88 110.11 29.21 C 106.49 29.68 102.84 29.92 99.19 29.78 Z" />
<path fill="#1f1c1e" d=" M 158.57 28.04 C 158.93 27.55 159.66 26.56 160.02 26.07 C 160.03 26.93 160.05 28.66 160.06 29.53 C 163.20 27.15 168.15 27.05 170.71 30.33 C 174.21 34.59 172.22 40.46 172.21 45.45 C 171.37 45.46 170.52 45.48 169.68 45.49 C 169.85 41.98 170.41 38.48 170.13 34.96 C 169.30 31.48 164.19 29.95 161.88 32.89 C 159.19 36.12 159.62 40.71 158.80 44.61 C 158.37 44.49 157.51 44.26 157.08 44.15 C 157.40 38.77 157.67 33.36 158.57 28.04 Z" />
<path fill="#120e13" d=" M 221.55 52.16 C 223.42 43.65 225.09 35.10 227.05 26.62 C 227.62 26.51 228.76 26.29 229.33 26.18 C 227.23 35.88 225.06 45.55 222.93 55.24 C 221.46 54.69 220.88 53.64 221.55 52.16 Z" />
<path fill="#1b171a" d=" M 70.13 28.88 C 70.48 28.78 71.19 28.56 71.54 28.45 C 71.61 29.09 71.76 30.38 71.83 31.03 C 74.80 28.30 79.77 27.11 82.97 30.12 C 86.81 33.83 86.31 39.67 86.91 44.56 C 86.36 44.63 85.26 44.78 84.71 44.86 C 84.16 41.55 83.84 38.19 83.06 34.92 C 82.04 31.49 76.79 30.54 74.76 33.60 C 72.22 37.50 73.98 42.40 73.68 46.73 C 72.94 46.01 71.61 45.60 71.75 44.32 C 70.95 39.20 70.49 34.04 70.13 28.88 Z" />
<path fill="#fff9cb" d=" M 144.16 28.97 C 148.21 26.77 154.70 31.21 152.83 35.95 C 151.56 40.07 144.94 41.22 142.63 37.40 C 140.75 34.77 141.65 30.85 144.16 28.97 Z" />
<path fill="#120f14" d=" M 235.18 28.83 C 235.76 28.63 236.92 28.23 237.51 28.03 C 235.29 37.83 233.10 47.65 230.36 57.31 C 228.42 56.04 229.40 53.80 229.76 51.99 C 231.63 44.28 233.28 36.53 235.18 28.83 Z" />
<path fill="#1e1a1c" d=" M 52.79 30.93 C 54.14 31.14 54.64 32.27 54.97 33.47 C 57.54 30.29 62.59 29.24 65.80 32.08 C 69.90 35.70 69.42 41.76 70.42 46.69 C 69.82 46.60 68.64 46.42 68.04 46.33 C 67.25 43.23 67.02 40.02 66.09 36.96 C 65.09 33.88 60.40 32.69 58.28 35.30 C 54.97 39.03 57.12 44.37 57.35 48.75 L 55.46 48.22 C 54.14 42.54 53.57 36.70 52.79 30.93 Z" />
<path fill="#1f1b1d" d=" M 47.98 34.86 C 48.00 33.21 48.68 31.98 50.04 31.17 C 51.44 37.17 52.31 43.27 53.25 49.36 C 52.42 49.46 50.76 49.65 49.93 49.74 C 49.78 49.14 49.46 47.95 49.30 47.35 C 47.00 49.55 44.49 52.24 40.95 51.78 C 38.49 52.27 36.58 50.25 36.04 48.03 C 34.83 43.80 34.97 38.52 38.08 35.12 C 40.82 32.38 44.89 33.37 47.98 34.86 Z" />
<path fill="#1f1b1d" d=" M 201.63 41.41 C 202.99 37.92 205.72 33.85 209.97 34.13 C 212.83 33.89 214.69 36.40 216.80 37.88 C 217.40 36.96 217.94 36.01 218.42 35.02 L 219.56 36.10 C 219.29 41.96 217.26 47.63 216.13 53.38 C 215.32 53.14 213.70 52.68 212.90 52.45 C 213.01 51.84 213.23 50.64 213.34 50.04 C 209.79 51.67 205.29 52.72 201.92 50.10 C 199.61 47.76 200.79 44.14 201.63 41.41 Z" />
<path fill="#fff9cb" d=" M 40.95 49.47 C 35.61 46.25 36.26 36.33 43.10 35.36 C 43.95 35.99 44.80 36.61 45.66 37.23 C 46.35 40.18 46.92 43.15 47.50 46.11 C 45.49 47.49 43.71 50.12 40.95 49.47 Z" />
<path fill="#fff9cb" d=" M 203.91 47.89 C 202.36 43.85 203.90 38.65 207.91 36.69 C 210.19 36.06 212.39 36.93 213.73 38.84 C 213.21 41.96 212.61 45.07 212.02 48.18 C 209.41 48.97 205.84 50.88 203.91 47.89 Z" />
<path fill="#b6703c" d=" M 114.43 61.34 C 116.87 61.27 119.31 61.24 121.75 61.30 C 131.79 68.44 145.86 64.09 155.79 71.56 C 151.52 70.76 147.35 69.45 143.03 68.88 C 137.42 68.12 131.70 68.13 126.19 66.74 C 121.99 65.64 118.13 63.55 114.43 61.34 Z" />
<path fill="#cc9d70" d=" M 121.75 61.30 C 126.44 61.04 131.14 61.11 135.83 60.96 C 140.07 64.68 145.57 66.10 150.99 67.07 C 154.53 67.90 157.80 69.53 161.26 70.61 C 162.37 73.37 163.37 76.16 164.24 79.00 C 163.81 78.59 162.96 77.77 162.53 77.36 C 160.45 75.24 158.27 73.20 155.79 71.56 C 145.86 64.09 131.79 68.44 121.75 61.30 Z" />
<path fill="#b36f3c" d=" M 135.83 60.96 C 139.24 60.59 142.68 60.58 146.11 60.69 C 147.36 63.08 149.05 65.20 150.99 67.07 C 145.57 66.10 140.07 64.68 135.83 60.96 Z" />
<path fill="#b26f3d" d=" M 147.83 60.78 C 149.94 60.70 152.05 60.66 154.16 60.61 L 154.55 60.92 C 160.31 65.63 167.04 69.60 170.93 76.15 C 173.70 80.82 171.78 86.33 171.30 91.34 C 173.00 87.60 175.04 83.65 174.50 79.40 C 173.85 73.16 169.50 68.31 166.35 63.16 C 172.03 66.09 176.14 71.85 177.39 78.08 C 178.33 82.42 176.56 86.65 175.71 90.84 C 176.92 89.41 177.87 87.79 178.73 86.12 C 180.65 88.61 183.36 90.05 186.50 90.31 C 184.11 93.41 180.56 91.65 177.70 90.31 L 177.54 90.55 C 175.40 93.70 172.92 97.03 172.85 101.01 C 172.79 106.75 177.21 111.23 177.93 116.78 C 176.26 119.66 171.88 118.69 169.14 118.09 C 166.64 116.05 165.62 112.76 163.82 110.15 C 162.86 116.85 168.07 121.53 172.37 125.75 C 170.11 124.73 167.85 123.73 165.49 122.99 C 166.86 124.79 168.74 126.05 170.58 127.32 C 167.32 126.79 164.18 125.77 160.96 125.04 C 157.74 124.27 154.54 125.55 151.46 126.39 C 151.23 124.21 151.01 122.03 150.79 119.86 C 156.48 114.84 161.49 108.93 165.27 102.33 C 168.10 96.73 169.54 90.01 167.68 83.88 L 167.62 83.32 C 167.53 79.52 168.79 75.14 165.89 72.01 C 160.71 66.92 151.41 67.88 147.83 60.78 Z" />
<path fill="#cb9c70" d=" M 154.55 60.92 C 158.10 61.27 161.66 61.40 165.22 61.47 C 165.60 62.03 165.98 62.59 166.35 63.16 C 169.50 68.31 173.85 73.16 174.50 79.40 C 175.04 83.65 173.00 87.60 171.30 91.34 C 171.78 86.33 173.70 80.82 170.93 76.15 C 167.04 69.60 160.31 65.63 154.55 60.92 Z" />
<path fill="#ffe1ba" d=" M 178.94 61.04 C 183.30 60.84 186.83 63.39 190.54 65.19 C 196.67 66.21 203.05 66.13 209.00 68.17 C 208.54 68.34 207.64 68.69 207.19 68.86 C 204.23 70.31 200.08 71.00 198.70 74.38 C 197.45 80.45 200.38 86.26 200.92 92.23 C 201.61 99.50 202.87 106.73 202.90 114.04 C 202.92 117.71 203.84 121.27 204.34 124.88 C 199.41 127.88 194.15 130.38 188.52 131.74 C 188.09 130.02 187.68 128.30 187.26 126.57 C 190.86 124.04 194.77 122.00 198.73 120.10 C 198.49 113.18 196.52 106.52 195.24 99.76 C 193.21 89.99 192.61 79.87 189.73 70.30 C 186.17 67.18 181.82 64.93 178.94 61.04 Z" />
<path fill="#b26f3d" d=" M 100.11 62.50 C 101.70 61.44 103.73 61.79 105.51 61.51 C 100.91 66.28 93.55 66.31 88.74 70.80 C 84.75 74.07 83.68 79.77 85.12 84.57 C 83.56 84.55 82.00 84.54 80.44 84.53 C 81.23 85.15 82.03 85.78 82.82 86.41 C 82.17 90.22 81.71 94.06 81.88 97.93 C 79.75 93.51 76.32 89.70 74.98 84.92 C 75.00 82.30 76.12 79.85 76.80 77.35 C 75.70 79.19 74.38 80.96 73.80 83.05 C 73.43 85.53 74.16 87.99 74.85 90.34 C 69.12 86.12 73.11 78.56 75.64 73.63 C 77.53 73.10 79.43 72.55 81.32 72.01 C 81.03 71.60 80.43 70.78 80.13 70.37 C 86.27 66.39 94.34 67.27 100.11 62.50 Z" />
<path fill="#ffe1ba" d=" M 107.22 61.92 C 108.90 61.81 110.57 61.72 112.25 61.63 C 117.08 64.80 122.38 67.47 128.11 68.53 C 136.79 69.80 145.80 69.71 154.09 72.93 C 156.89 74.08 159.95 75.86 160.80 78.99 C 161.54 81.42 160.01 83.67 159.26 85.88 C 162.15 85.13 164.95 84.06 167.53 82.54 L 167.62 83.32 L 167.68 83.88 C 168.84 92.38 165.24 100.65 160.77 107.66 C 154.87 116.16 145.72 123.69 134.90 123.77 C 129.29 124.48 123.64 125.04 117.97 124.65 C 103.01 123.39 89.04 113.11 84.05 98.83 C 82.12 94.70 82.70 90.11 83.53 85.79 C 85.10 85.27 86.67 84.74 88.23 84.19 C 87.30 83.86 86.37 83.54 85.44 83.22 C 85.32 79.67 85.35 75.62 87.95 72.88 C 93.03 67.11 101.54 66.91 107.22 61.92 Z" />
<path fill="#ffe1ba" d=" M 53.08 68.93 C 56.87 67.10 59.32 62.51 63.85 62.54 C 61.57 66.31 58.31 69.36 55.99 73.09 C 55.54 77.10 55.62 81.21 54.54 85.15 C 51.63 96.09 48.12 106.87 44.23 117.50 C 51.71 119.90 58.17 124.59 65.65 127.00 C 65.64 129.63 64.85 134.91 61.09 133.69 C 54.51 130.53 48.83 125.70 42.15 122.65 C 40.48 121.65 37.83 121.30 37.63 118.93 C 37.37 114.08 40.21 109.78 41.28 105.17 C 43.96 94.85 46.76 84.56 49.33 74.22 C 44.01 73.69 38.37 74.58 33.53 71.72 C 38.84 68.64 45.23 69.21 51.06 67.96 C 51.56 68.21 52.57 68.69 53.08 68.93 Z" />
<path fill="#cc9d70" d=" M 88.45 62.93 C 92.29 62.25 96.22 62.38 100.11 62.50 C 94.34 67.27 86.27 66.39 80.13 70.37 C 77.70 72.24 74.70 72.47 71.88 71.38 C 74.84 70.74 77.95 70.18 80.45 68.34 C 83.21 66.68 85.41 64.10 88.45 62.93 Z" />
<path fill="#ffffff" d=" M 169.09 62.43 C 174.89 63.09 181.73 63.28 185.64 68.34 C 191.81 76.18 191.73 86.71 193.22 96.12 C 194.09 103.82 197.04 111.19 197.00 118.99 C 195.04 120.42 193.00 121.73 190.89 122.93 C 189.58 121.31 188.28 119.67 186.92 118.09 C 186.24 118.38 184.90 118.94 184.22 119.23 C 184.71 115.13 183.24 111.37 181.74 107.71 L 182.09 107.23 C 183.41 106.47 184.77 105.79 186.04 104.94 C 186.01 103.36 185.78 101.79 185.58 100.22 C 184.93 101.44 184.25 102.64 183.52 103.81 C 182.14 103.80 180.78 103.48 179.44 103.19 C 177.43 100.02 178.96 96.35 180.01 93.14 C 182.03 92.90 184.71 94.01 186.16 92.10 C 187.12 90.81 187.22 89.11 187.65 87.60 C 184.35 90.30 180.24 87.61 179.21 84.07 C 178.97 80.54 179.17 76.85 177.69 73.54 C 175.96 69.07 172.40 65.75 169.09 62.43 Z" />
<path fill="#ffffff" d=" M 64.98 65.98 C 71.54 64.93 78.15 64.12 84.75 63.43 C 80.76 66.57 75.82 71.88 70.31 68.80 C 70.61 71.14 72.23 72.69 74.21 73.78 C 71.48 78.39 69.79 83.68 70.83 89.07 C 70.96 93.53 65.40 93.69 62.21 94.00 C 64.36 97.09 68.21 97.37 71.62 97.52 C 70.04 101.00 67.32 105.42 70.00 109.07 C 72.17 111.12 74.97 112.46 76.75 114.94 C 75.09 119.18 70.01 118.47 67.10 121.18 C 65.78 122.19 64.55 123.33 63.07 124.11 C 57.10 123.33 52.70 118.47 46.83 117.27 C 47.30 110.89 50.88 105.35 52.23 99.18 C 53.61 93.16 55.62 87.28 56.55 81.17 C 57.16 77.80 56.72 73.99 59.09 71.20 C 60.70 69.17 62.04 66.16 64.98 65.98 Z" />
<path fill="#bd7a46" d=" M 161.26 70.61 C 164.26 72.40 166.78 75.35 166.52 79.06 C 166.80 81.82 164.10 83.14 162.17 84.39 C 162.28 82.05 162.40 79.70 162.53 77.36 C 162.96 77.77 163.81 78.59 164.24 79.00 C 163.37 76.16 162.37 73.37 161.26 70.61 Z" />
<path fill="#faee96" d=" M 4.06 80.62 C 8.83 75.49 16.50 75.56 22.72 73.23 C 22.76 74.38 22.75 75.54 22.67 76.69 C 16.77 79.03 10.40 80.37 4.06 80.62 Z" />
<path fill="#120f14" d=" M 141.88 74.78 C 142.59 77.24 142.82 80.13 140.02 81.32 C 140.29 79.06 140.91 76.85 141.88 74.78 Z" />
<path fill="#100e13" d=" M 106.51 75.81 C 108.33 76.75 108.71 78.56 108.61 80.47 C 108.14 80.37 107.21 80.18 106.74 80.08 C 106.63 78.66 106.55 77.23 106.51 75.81 Z" />
<path fill="#1b181b" d=" M 113.07 81.05 C 113.32 78.78 114.75 77.00 116.56 75.72 C 116.13 77.93 115.33 80.16 113.07 81.05 Z" />
<path fill="#221e1f" d=" M 133.15 76.72 C 134.57 78.29 135.67 80.12 136.13 82.21 C 133.54 81.59 133.25 78.93 133.15 76.72 Z" />
<path fill="#c89669" d=" M 73.80 83.05 C 74.38 80.96 75.70 79.19 76.80 77.35 C 76.12 79.85 75.00 82.30 74.98 84.92 C 76.32 89.70 79.75 93.51 81.88 97.93 L 82.36 98.95 C 83.14 103.03 80.16 106.16 79.17 109.82 C 79.59 113.40 83.71 114.50 86.18 116.44 C 83.26 115.66 80.33 114.74 77.82 113.01 C 74.39 110.56 69.80 108.21 70.28 103.25 C 73.20 104.03 76.91 106.12 79.53 103.52 C 80.28 101.27 79.60 98.88 79.12 96.65 C 78.31 94.18 76.47 92.29 74.85 90.34 C 74.16 87.99 73.43 85.53 73.80 83.05 Z" />
<path fill="#100e13" d=" M 100.26 78.14 C 102.02 79.12 103.64 80.36 104.36 82.33 C 102.13 81.90 101.02 80.07 100.26 78.14 Z" />
<path fill="#100e13" d=" M 144.52 81.64 C 143.66 79.06 147.99 79.04 149.45 77.80 C 148.35 79.66 147.08 82.03 144.52 81.64 Z" />
<path fill="#1d1a1b" d=" M 109.18 84.38 C 109.80 84.49 111.03 84.72 111.65 84.83 C 111.91 87.06 110.60 88.65 108.87 89.85 C 108.25 88.95 107.01 88.31 107.04 87.09 C 107.68 86.13 108.45 85.27 109.18 84.38 Z" />
<path fill="#1a181a" d=" M 137.03 87.16 C 138.24 86.08 139.50 85.05 140.84 84.14 C 141.46 85.11 142.09 86.08 142.72 87.05 C 141.83 87.75 141.09 88.71 139.96 89.01 C 138.94 88.46 137.98 87.81 137.03 87.16 Z" />
<path fill="#100e13" d=" M 120.32 89.39 C 120.68 89.53 121.42 89.80 121.78 89.94 C 121.60 92.05 121.45 94.16 121.33 96.27 C 122.36 96.30 124.44 96.37 125.47 96.40 C 123.58 97.40 121.63 98.28 119.63 99.02 C 119.64 95.80 119.73 92.57 120.32 89.39 Z" />
<path fill="#b26f3d" d=" M 72.63 90.51 C 74.41 92.32 75.98 94.33 77.20 96.57 C 76.46 97.71 75.74 98.87 75.05 100.05 C 76.51 99.04 77.84 97.86 79.12 96.65 C 79.60 98.88 80.28 101.27 79.53 103.52 C 76.91 106.12 73.20 104.03 70.28 103.25 C 71.60 100.30 73.29 97.54 75.43 95.12 C 72.25 95.98 68.96 96.20 65.69 95.88 C 68.25 94.42 70.69 92.75 72.63 90.51 Z" />
<path fill="#cb9c70" d=" M 172.85 101.01 C 172.92 97.03 175.40 93.70 177.54 90.55 C 179.61 93.92 176.03 97.49 176.84 101.10 C 178.08 107.00 183.49 111.70 182.44 118.11 C 182.05 123.08 176.94 125.87 172.37 125.75 C 168.07 121.53 162.86 116.85 163.82 110.15 C 165.62 112.76 166.64 116.05 169.14 118.09 C 171.88 118.69 176.26 119.66 177.93 116.78 C 177.21 111.23 172.79 106.75 172.85 101.01 Z" />
<path fill="#b26f3d" d=" M 82.36 98.95 C 84.86 105.28 89.24 110.65 94.11 115.32 C 90.56 120.95 83.25 120.94 77.92 123.99 C 75.54 122.75 73.11 121.62 70.63 120.60 C 72.45 119.79 74.38 119.13 75.98 117.92 C 77.51 116.78 77.36 114.66 77.82 113.01 C 80.33 114.74 83.26 115.66 86.18 116.44 C 83.71 114.50 79.59 113.40 79.17 109.82 C 80.16 106.16 83.14 103.03 82.36 98.95 Z" />
<path fill="#403f3f" d=" M 185.58 100.22 C 185.78 101.79 186.01 103.36 186.04 104.94 C 184.77 105.79 183.41 106.47 182.09 107.23 L 181.74 107.71 L 181.37 107.84 C 180.74 106.28 180.10 104.73 179.44 103.19 C 180.78 103.48 182.14 103.80 183.52 103.81 C 184.25 102.64 184.93 101.44 185.58 100.22 Z" />
<path fill="#120f14" d=" M 132.34 110.30 C 136.29 108.60 139.23 105.33 142.97 103.28 C 140.22 108.84 134.17 111.67 128.49 113.31 C 123.00 114.79 116.07 114.30 112.16 109.71 C 114.92 110.10 117.40 111.42 120.04 112.25 C 124.21 113.04 128.52 111.99 132.34 110.30 Z" />
<path fill="#a15124" d=" M 94.11 115.32 C 96.29 116.87 98.41 118.51 100.48 120.21 C 98.99 122.21 97.49 124.20 95.99 126.19 C 92.13 125.28 88.12 125.34 84.30 126.39 C 81.87 127.16 79.91 124.99 77.92 123.99 C 83.25 120.94 90.56 120.95 94.11 115.32 Z" />
<path fill="#b26f3d" d=" M 100.48 120.21 C 105.91 123.11 111.79 125.03 117.74 126.49 C 117.83 127.72 117.91 128.96 117.99 130.19 C 114.97 130.78 111.90 130.72 108.90 130.02 C 110.45 128.76 112.01 127.53 113.54 126.24 C 111.01 127.09 108.53 128.16 105.90 128.64 C 102.41 129.11 99.12 127.47 95.99 126.19 C 97.49 124.20 98.99 122.21 100.48 120.21 Z" />
<path fill="#a15124" d=" M 143.45 123.47 C 145.89 122.26 148.34 121.06 150.79 119.86 C 151.01 122.03 151.23 124.21 151.46 126.39 L 151.51 126.81 C 149.30 127.62 147.10 128.47 144.96 129.43 C 144.46 127.44 143.96 125.46 143.45 123.47 Z" />
<path fill="#e34b96" d=" M 177.02 126.00 C 180.05 124.96 182.24 122.50 184.78 120.67 C 185.53 124.46 185.96 128.30 186.42 132.13 C 186.99 138.22 189.63 143.91 189.91 150.05 C 177.11 154.33 165.13 160.97 151.89 163.92 C 150.07 154.18 151.28 144.26 151.22 134.43 C 155.68 132.78 160.28 131.51 164.63 129.58 C 168.59 127.83 172.94 127.38 177.02 126.00 Z" />
<path fill="#e34b96" d=" M 71.01 121.72 C 78.82 125.04 86.03 129.59 93.67 133.27 C 95.48 134.41 98.64 135.15 98.22 137.90 C 98.36 146.66 95.58 155.08 93.96 163.60 C 89.01 162.67 84.90 159.64 80.28 157.85 C 72.80 154.76 65.33 151.67 57.85 148.59 C 58.99 144.78 61.33 141.52 62.80 137.85 C 65.11 132.27 67.48 126.66 71.01 121.72 Z" />
<path fill="#6b3051" d=" M 187.01 122.23 C 188.63 121.73 189.17 122.30 188.63 123.93 C 187.01 124.43 186.47 123.86 187.01 122.23 Z" />
<path fill="#742955" d=" M 67.31 123.03 C 69.44 123.72 66.92 126.92 65.47 125.53 C 64.64 124.38 66.08 122.84 67.31 123.03 Z" />
<path fill="#b26f3d" d=" M 130.03 125.95 C 134.36 124.45 139.06 124.75 143.45 123.47 C 143.96 125.46 144.46 127.44 144.96 129.43 C 142.29 129.85 139.59 129.89 136.91 130.14 C 136.22 130.37 134.85 130.84 134.16 131.07 C 135.18 129.99 137.21 127.81 138.22 126.73 C 135.16 127.27 132.12 127.94 129.09 128.65 C 129.32 127.97 129.79 126.62 130.03 125.95 Z" />
<path fill="#ffe1ba" d=" M 119.94 126.68 C 122.47 126.46 124.99 126.23 127.51 125.95 C 128.02 131.52 128.85 137.07 130.75 142.35 C 126.50 143.35 122.08 143.24 117.81 142.47 C 118.64 137.23 119.36 131.96 119.94 126.68 Z" />
<path fill="#ffffff" d=" M 157.58 125.85 C 160.21 125.94 162.80 126.56 165.10 127.87 C 163.99 128.27 162.87 128.67 161.75 129.06 C 160.37 127.97 158.96 126.93 157.58 125.85 Z" />
<path fill="#ffffff" d=" M 85.02 127.02 C 89.89 125.90 94.92 126.91 99.42 128.91 C 98.66 129.49 97.16 130.66 96.40 131.25 C 100.42 129.83 104.85 129.10 108.88 130.93 C 111.83 132.37 115.11 131.91 118.18 131.13 C 117.91 132.19 117.59 133.23 117.21 134.26 C 113.31 135.35 109.16 136.07 105.11 135.65 C 98.15 133.53 91.10 131.07 85.02 127.02 Z" />
<path fill="#ffffff" d=" M 131.91 129.58 C 133.89 131.26 135.20 129.12 136.21 127.86 L 134.16 131.07 C 134.85 130.84 136.22 130.37 136.91 130.14 C 136.52 130.35 135.75 130.78 135.36 130.99 C 138.92 131.45 142.66 131.48 145.95 129.83 C 150.59 127.62 156.25 126.61 160.97 129.17 C 154.69 131.62 148.20 133.49 141.94 136.00 C 138.34 137.61 134.48 136.08 130.80 135.66 C 130.38 133.63 127.95 128.55 131.91 129.58 Z" />
<path fill="#861b5a" d=" M 188.46 133.86 C 189.51 133.50 190.59 133.22 191.68 133.03 C 191.68 136.56 191.49 140.11 190.85 143.59 C 189.22 140.62 188.19 137.28 188.46 133.86 Z" />
<path fill="#722a53" d=" M 59.81 134.90 C 60.47 135.18 61.78 135.76 62.44 136.04 C 61.39 138.20 60.13 140.24 58.60 142.09 C 58.90 139.67 59.31 137.28 59.81 134.90 Z" />
<path fill="#f2e2f0" d=" M 141.16 137.37 C 143.80 136.22 146.60 135.48 149.38 134.75 C 150.14 143.09 148.98 151.52 149.76 159.88 C 151.48 170.61 152.40 181.46 154.67 192.11 C 156.16 204.68 155.90 217.38 156.89 229.99 C 158.05 240.62 161.40 251.19 160.14 261.97 C 157.74 264.32 154.18 264.47 151.02 264.68 C 144.03 264.70 137.08 265.88 130.07 265.32 C 124.07 264.77 118.06 264.26 112.02 264.22 C 106.33 264.27 100.72 263.03 95.04 262.82 C 90.71 262.54 86.35 262.56 82.04 262.05 C 80.48 261.28 80.46 259.53 80.75 258.04 C 83.31 246.89 83.11 235.36 84.29 224.03 C 84.66 214.31 87.70 205.01 89.21 195.47 C 92.71 175.43 98.09 155.71 100.33 135.47 C 103.60 136.10 106.23 138.10 108.57 140.37 C 116.54 144.81 126.63 145.92 135.07 142.08 C 137.47 141.03 138.98 138.75 141.16 137.37 Z" />
<path fill="#821b58" d=" M 107.34 137.78 C 110.55 136.83 113.88 136.35 117.23 136.31 C 116.67 138.25 116.09 140.20 115.49 142.14 C 112.64 140.94 109.89 139.52 107.34 137.78 Z" />
<path fill="#7d2257" d=" M 131.24 137.24 C 133.38 137.55 135.52 137.90 137.65 138.29 C 136.20 139.75 134.57 141.02 132.86 142.16 C 132.30 140.52 131.76 138.88 131.24 137.24 Z" />
<path fill="#120f14" d=" M 134.85 150.82 C 135.96 149.93 137.38 150.45 138.66 150.49 C 137.24 156.29 134.10 161.45 131.86 166.94 C 129.99 171.66 127.02 175.82 125.09 180.51 C 122.62 174.01 117.76 168.89 113.38 163.64 C 111.02 160.68 106.78 158.94 106.42 154.75 C 112.72 153.77 118.02 157.67 122.87 161.06 C 126.32 157.07 130.28 153.48 134.85 150.82 Z" />
<path fill="#fac6d1" d=" M 122.98 163.60 C 126.79 158.99 131.23 154.79 136.51 151.91 C 134.79 161.22 128.28 168.54 125.11 177.31 C 122.52 173.98 120.53 170.21 117.64 167.12 C 114.64 163.46 110.93 160.36 108.61 156.19 C 114.34 156.17 118.90 160.05 122.98 163.60 Z" />
<path fill="#ffe1ba" d=" M 95.90 264.46 C 99.51 264.78 103.12 264.97 106.74 264.81 C 107.24 272.21 106.14 279.55 105.34 286.88 C 104.17 295.30 103.42 303.81 101.21 312.04 C 98.64 322.42 97.43 333.07 94.90 343.45 C 90.30 344.46 85.57 344.23 80.92 344.88 C 73.88 345.88 66.76 345.13 59.71 344.58 C 60.88 340.43 64.84 338.08 68.53 336.42 C 75.81 333.57 83.77 335.01 91.34 333.88 C 93.93 310.81 91.36 287.33 95.90 264.46 Z" />
<path fill="#ffe1ba" d=" M 131.49 266.78 C 134.95 266.75 138.41 266.74 141.87 266.77 C 142.53 271.85 141.85 276.98 142.56 282.07 C 143.37 299.71 142.83 317.43 141.23 335.01 C 141.72 334.54 142.71 333.61 143.20 333.14 C 150.15 332.72 156.88 335.00 163.10 337.87 C 167.04 339.71 171.26 341.50 173.97 345.09 C 161.95 347.18 150.05 343.55 138.06 343.35 C 135.96 343.31 135.92 340.39 135.44 338.88 C 132.60 314.96 131.68 290.86 131.49 266.78 Z" />
</svg>
