<?xml version="1.0" encoding="UTF-8" ?>
<!DOCTYPE svg PUBLIC "-//W3C//DTD SVG 1.1//EN" "http://www.w3.org/Graphics/SVG/1.1/DTD/svg11.dtd">
<svg width="236pt" height="43pt" viewBox="0 0 236 43" version="1.1" xmlns="http://www.w3.org/2000/svg">
<path fill="#ffffff" d=" M 0.00 0.00 L 236.00 0.00 L 236.00 43.00 L 0.00 43.00 L 0.00 0.00 Z" />
<path fill="#a73b31" d=" M 26.19 9.59 C 51.73 4.18 77.92 2.28 104.00 2.72 C 123.29 3.42 142.44 5.92 161.48 8.96 C 159.49 10.59 157.04 12.21 156.68 14.99 C 156.78 16.84 158.62 17.79 159.72 19.04 C 157.01 19.82 154.79 21.53 153.20 23.85 C 153.78 24.78 154.37 25.72 154.96 26.65 C 152.69 27.84 150.85 29.60 149.93 32.03 C 150.89 33.00 151.86 33.97 152.82 34.94 C 113.82 40.41 73.99 41.06 34.99 35.23 C 35.53 32.97 36.08 30.71 36.59 28.45 C 42.49 33.00 51.48 30.28 54.98 24.05 C 57.23 20.32 58.54 14.45 54.49 11.42 C 49.93 8.58 44.02 10.02 39.87 12.96 C 40.27 11.87 40.68 10.78 41.08 9.69 C 37.67 10.28 34.24 10.76 30.84 11.36 C 28.67 18.69 26.44 26.00 24.24 33.31 C 17.85 31.55 11.20 30.02 5.55 26.38 C 3.71 25.09 1.67 23.29 1.70 20.84 C 2.74 17.95 5.63 16.45 8.21 15.18 C 13.93 12.55 20.06 10.96 26.19 9.59 Z" />
<path fill="#044128" d=" M 112.52 1.93 C 135.13 0.95 157.76 2.67 180.27 4.66 C 179.11 5.70 177.95 6.75 176.81 7.82 C 171.10 6.75 165.35 9.23 159.74 7.50 C 144.20 4.26 128.36 2.64 112.52 1.93 Z" />
<path fill="#044128" d=" M 188.51 5.66 C 201.06 7.79 213.89 9.38 225.78 14.18 C 228.87 15.60 232.36 16.97 234.26 19.96 C 235.45 22.58 233.06 24.83 231.03 26.07 C 224.98 29.74 218.04 31.55 211.22 33.17 C 185.89 38.70 159.90 40.31 134.05 41.20 C 120.79 41.39 107.51 41.49 94.25 40.99 C 113.41 40.20 132.70 39.85 151.62 36.36 C 160.21 34.33 169.57 37.74 177.83 33.85 C 180.41 32.81 181.80 30.32 182.58 27.78 C 181.58 26.28 180.91 24.19 179.02 23.60 C 174.05 22.16 168.81 22.79 163.70 22.51 C 163.69 22.02 163.67 21.03 163.66 20.53 C 169.92 20.30 177.73 21.44 182.21 16.02 C 184.29 13.69 182.65 11.02 181.33 8.81 C 183.20 8.73 185.07 8.69 186.94 8.66 C 187.46 7.66 187.98 6.66 188.51 5.66 Z" />
<path fill="#ffffff" d=" M 59.18 16.43 C 64.95 9.62 74.67 9.54 82.80 10.64 C 85.36 11.15 89.07 12.78 88.39 15.98 C 87.36 21.13 85.28 26.05 84.91 31.34 C 81.43 31.34 77.95 31.34 74.47 31.35 C 74.59 30.64 74.83 29.21 74.95 28.50 C 70.58 31.37 65.09 32.60 60.01 31.06 C 57.88 30.42 55.55 28.55 56.12 26.06 C 56.75 22.83 59.92 20.86 62.81 19.83 C 67.51 18.34 72.48 18.13 77.35 17.68 C 77.39 17.09 77.48 15.92 77.52 15.34 C 74.43 14.33 71.32 15.12 68.82 17.14 C 65.61 16.94 62.39 16.73 59.18 16.43 Z" />
<path fill="#ffffff" d=" M 103.12 13.45 C 107.12 10.29 112.52 9.29 117.40 10.79 C 119.01 11.43 120.70 13.03 120.36 14.92 C 119.44 20.51 117.55 25.88 116.19 31.36 C 112.47 31.33 108.76 31.34 105.04 31.34 C 106.44 26.05 108.52 20.86 108.73 15.33 C 106.71 15.72 103.78 15.44 102.96 17.86 C 101.32 22.24 100.50 26.88 99.15 31.35 C 95.44 31.33 91.73 31.34 88.02 31.34 C 90.02 24.42 91.78 17.45 93.70 10.51 C 97.18 10.53 100.67 10.52 104.16 10.52 C 103.81 11.50 103.46 12.47 103.12 13.45 Z" />
<path fill="#ffffff" d=" M 123.16 16.44 C 128.90 9.57 138.69 9.56 146.80 10.66 C 149.37 11.14 153.08 12.78 152.33 16.01 C 151.28 21.16 149.44 26.14 148.69 31.36 C 145.24 31.33 141.79 31.34 138.35 31.36 C 138.50 30.65 138.78 29.21 138.93 28.50 C 134.56 31.40 129.04 32.60 123.95 31.06 C 122.15 30.45 120.04 29.14 120.06 26.98 C 119.86 23.75 122.86 21.60 125.46 20.36 C 130.47 18.27 136.03 18.22 141.37 17.69 C 141.41 17.10 141.49 15.91 141.53 15.32 C 138.41 14.30 135.31 15.15 132.78 17.14 C 129.57 16.94 126.36 16.74 123.16 16.44 Z" />
<path fill="#044128" d=" M 166.38 16.25 C 166.83 13.98 168.01 11.14 170.83 11.47 C 172.82 11.07 174.58 13.46 173.06 15.05 C 171.65 17.47 168.60 16.50 166.38 16.25 Z" />
<path fill="#ffffff" d=" M 185.13 17.00 C 191.17 11.07 200.87 9.27 208.75 12.18 C 212.27 13.45 215.27 17.05 214.38 20.97 C 213.14 26.77 207.43 30.22 202.07 31.63 C 195.29 33.46 186.63 32.92 182.34 26.57 C 181.84 23.13 182.55 19.49 185.13 17.00 Z" />
<path fill="#a73b31" d=" M 40.37 16.24 C 41.66 14.39 44.06 14.97 45.92 15.37 C 45.72 18.87 45.71 23.24 42.49 25.46 C 41.03 26.12 37.76 26.36 38.19 23.93 C 38.41 21.27 39.12 18.61 40.37 16.24 Z" />
<path fill="#044128" d=" M 193.78 26.02 C 193.62 21.80 195.17 16.63 199.82 15.52 C 200.79 15.98 201.76 16.44 202.73 16.90 C 202.74 20.54 202.23 24.78 199.12 27.15 C 197.40 27.94 194.61 28.17 193.78 26.02 Z" />
<path fill="#a73b31" d=" M 67.50 25.17 C 69.45 21.95 73.45 21.86 76.74 21.32 C 75.61 23.17 75.10 26.00 72.68 26.60 C 70.88 27.00 68.31 27.30 67.50 25.17 Z" />
<path fill="#a73b31" d=" M 131.43 25.12 C 133.52 22.06 137.38 21.81 140.70 21.30 C 139.59 23.16 139.05 25.96 136.64 26.58 C 134.82 27.03 132.28 27.24 131.43 25.12 Z" />
<path fill="#044128" d=" M 159.59 28.85 C 164.03 28.07 168.58 28.65 173.05 28.94 C 172.56 30.33 171.69 31.68 170.05 31.62 C 166.54 31.91 162.95 31.89 159.51 31.07 C 159.53 30.52 159.57 29.41 159.59 28.85 Z" />
</svg>
