<?xml version="1.0" encoding="utf-8"?>
<!-- Generator: Adobe Illustrator 20.0.0, SVG Export Plug-In . SVG Version: 6.00 Build 0)  -->
<svg version="1.1" id="TeachAsiaLogo_Image" xmlns="http://www.w3.org/2000/svg" xmlns:xlink="http://www.w3.org/1999/xlink"
	 x="0px" y="0px" viewBox="0 0 300.9 83.1" style="enable-background:new 0 0 300.9 83.1;" xml:space="preserve">
<style type="text/css">
	.st0{fill:#46413B;}
	.st1{fill:#FEAC5D;}
	.st2{fill:#FE8504;}
	.st3{fill:#FE8503;}
	.st4{fill:#FDB470;}
	.st5{fill:#FEAB5C;}
	.st6{fill:#FE8605;}
	.st7{fill:#FDB26A;}
	.st8{fill:#FEAD5F;}
	.st9{fill:#96FBF5;}
	.st10{fill:#97FAF2;}
	.st11{fill:#66625D;}
	.st12{fill:#FB8708;}
	.st13{fill:#5D5B55;}
</style>
<title>TeachAsiaLogo</title>
<path class="st0" d="M298.2,80.1h-11.5l-1.3-3.2h-11.1l-1.2,3.2h-11.5l13.9-36.5h8.9L298.2,80.1z M282.4,68.7l-2.5-6.4l-2.4,6.4
	H282.4z"/>
<path class="st0" d="M121.8,66.8l5.7,10c-0.8,0.8-1.6,1.4-2.6,1.8c-4.1,2.1-8.8,2.9-13.3,2.4c-3.4-0.3-6.7-1.5-9.5-3.5
	c-3.6-2.5-6.2-6.4-7.1-10.7c-1.1-4.6-0.6-9.5,1.5-13.7c2.6-5.5,7.8-9.2,13.8-10c5.5-0.9,11.1,0.2,15.9,3c0.3,0.2,0.6,0.4,0.9,0.6
	l-5.7,10.1c-0.5-0.3-0.9-0.6-1.3-0.8c-2.4-1.5-5.3-2-8-1.3c-4.1,1.1-6.5,5.2-5.4,9.2c0.6,2.3,2.3,4.3,4.6,5.1
	c3.4,1.3,6.6,0.7,9.6-1.2C121,67.5,121.3,67.2,121.8,66.8z"/>
<path class="st0" d="M32.4,43.5h21.4v9.5h-9.8v4.1h9.6v9.1h-9.5v4.2h10.1V80H32.4V43.5z"/>
<path class="st0" d="M217.4,79.9V69c1.5,0.3,3,0.7,4.4,0.8c1.5,0.2,2.9,0.2,4.4,0.1c0.9-0.1,1.6-0.8,1.5-1.7c0-0.4-0.2-0.7-0.4-1
	c-0.2-0.3-0.5-0.5-0.7-0.8c-1.3-1-2.6-2.1-3.8-3.1c-2-1.5-3.6-3.5-4.7-5.7c-1.7-3.8-1.1-9.1,2.3-12c1.9-1.6,4.3-2.6,6.7-2.8
	c3.1-0.2,6.2,0,9.3,0.5c0.1,0,0.1,0.1,0.2,0.2v10.1c-0.7,0-1.4-0.1-2.1-0.1c-0.9,0-1.7,0-2.6,0.1c-0.5,0-1,0.3-1.2,0.8
	c-0.1,0.5,0.1,1.1,0.6,1.3c0.8,0.7,1.6,1.3,2.4,2c1.7,1.3,3.2,2.9,4.5,4.6c1.6,2.3,2.4,5,2.3,7.8c0,3-1.2,5.8-3.4,7.8
	c-1.9,1.7-4.4,2.7-6.9,3C226,81.4,221.6,81,217.4,79.9z"/>
<path class="st1" d="M162.1,58.9v21.5c-0.2,0.1-0.4,0.1-0.6,0.1h-8.3c-0.2,0-0.4-0.1-0.5-0.2V69l-2.3-1.2c-0.2-0.5-0.7-0.9-1.2-1
	l-2.3-1.8l-2,1.8c-0.6,0-0.9,0.5-1.2,0.9l-2.4,1.4v11.3c-0.1,0.1-0.3,0.1-0.4,0.2h-8.7c-0.1,0-0.2-0.1-0.3-0.1V59.8
	c0-0.3,0.1-0.7,0.2-1c0.1-0.2,0.2-0.4,0.3-0.6v-2.1l0.7-0.4v-2l0.7-0.6v-2l0.5-0.3c-0.1-1.4,0.6-2.9,1.9-4.9v-2.1h0.5v2.2
	c0.7,1.1,1.3,2.2,1.9,3.4v1.5c1.2,0.6,0.4,1.7,0.5,2.5l0.7,0.5v2l0.5,0.7v2.2l0.8,0.5v3.2H153c-0.2-1.1-0.3-2.2-0.1-3.3l0.9-0.4
	v-2.3l0.5-0.7v-2l0.7-0.6c-0.1-0.9-0.6-1.9,0.4-2.5v-1.4c0.6-1.2,1.2-2.3,1.9-3.4v-2.1h0.5V46c0.8,1.1,1.4,2.2,1.9,3.4v1.5l0.5,0.3
	v2.1l0.7,0.6v2l0.7,0.3v2.6L162.1,58.9z M145.1,64.9l-0.1-0.2h-3.7v3C142.6,66.6,144,66,145.1,64.9z M148.7,64.9
	c1.3,1,2.6,1.8,4.1,2.4v-2.5C151.4,64.6,150,64.6,148.7,64.9L148.7,64.9z"/>
<path class="st2" d="M179.2,80.3l-1.5-0.1l13.8-36.5h8.9l13.9,36.5l-1.4,0.1v-0.4c-0.3-0.1-0.5-0.2-0.7-0.3
	c-2.3-1.5-4.5-3.2-6.5-5.1c-1-0.9-1.9-1.9-2.7-3c-1-1.3-1.8-2.7-2.3-4.3c0.9-0.6,1.7-1.2,1.4-2.3s-1.4-1.5-2.5-1.5
	c-1-3.6-1.5-7.4-1.3-11.2l-0.9-0.7c-0.1-2.4-0.2-4.8-0.3-7.1c0-0.1,0-0.3-0.1-0.4h-1.6l-0.3,7.6l-1.1,0.5c0.1,3.8-0.3,7.5-1.4,11.2
	c-1-0.1-1.9,0.4-2.4,1.2c-0.3,1.4,0.5,2.1,1.4,2.8c-0.2,0.7-0.5,1.3-0.8,1.9c-0.8,1.5-1.9,2.9-3.1,4.2c-0.8,0.8-1.7,1.6-2.5,2.3
	c-1.5,1.4-3.2,2.7-4.9,3.7C179.8,79.7,179.5,80,179.2,80.3z"/>
<path class="st3" d="M65.4,80.4c-0.3,0-4.3,0-6.5-0.1h-1.3l13.8-36.5h4.2c0.1,2.1-0.1,4.3-0.5,6.4V52L74,52.9l1,0.7v1.6l-0.7,0.2
	l0.8,0.3l-0.9,0.8c-0.3,0.2-0.6,0.5-0.9,0.8c-1,1.5-1,2.2,0,3.6c0.2,0.2,0.5,0.4,0.8,0.6v2.2c0,1,0.1,2,0.1,3l-0.6,1.8
	c-2,0.8-2.9,3-2.1,5c0.1,0.3,0.3,0.6,0.5,0.9c0.2,0.2,0.3,0.5,0.6,0.8c-0.2,0.3-0.4,0.5-0.6,0.7c-0.6,0.6-0.9,1.6-1.9,1.8
	c-0.8,0.7-1.4,1-2.1,1.6c-0.4,0.3-0.8,0.4-1.3,0.4C66.1,79.8,65.7,80.3,65.4,80.4z"/>
<path class="st3" d="M76,43.8h4.3l13.9,36.4c-2.7,0.1-7.9,0.2-7.6,0.2s-0.6-0.7-1.1-0.6c-0.6,0-1.2-0.2-1.6-0.7
	c-0.4-0.4-1.1-0.7-1.3-1.2c-0.4-0.4-0.8-0.7-1.3-1.1l-2.2-1.6c1.2-0.8,1.8-2.3,1.6-3.7c-0.2-1.4-1.2-2.6-2.6-3.1l-0.7-2.1
	c0.1-0.2,0.2-0.5,0.2-0.7v-4.1c0.2-0.1,0.4-0.2,0.5-0.4c1.2-1.4,1.3-2.5,0-4c-0.2-0.2-0.3-0.4-0.5-0.5c-0.5-0.2-0.4-0.7-0.6-1
	l0.6-0.2L77,55.1v-1.5l1-0.8l-1.3-1c0-0.6,0-1.2,0-1.8C76.4,49.7,76,44.8,76,43.8z"/>
<path class="st4" d="M179.2,80.3c0.3-0.3,0.6-0.6,0.9-0.8c1.7-1.1,3.4-2.3,4.9-3.7c0.8-0.8,1.7-1.5,2.5-2.3c1.2-1.3,2.3-2.7,3.1-4.2
	c0.3-0.6,0.6-1.3,0.8-1.9c-0.9-0.7-1.8-1.4-1.4-2.8c0.5-0.8,1.5-1.3,2.4-1.2c1-3.6,1.5-7.4,1.4-11.1l1.1-0.5
	c0.1-2.5,0.2-7.9,0.4-7.9h1.7c0,0,0.2,5.2,0.2,7.8l0.9,0.7c-0.1,3.8,0.3,7.5,1.3,11.1c1.1,0,2.2,0.2,2.5,1.5s-0.5,1.8-1.4,2.3
	c0.5,1.6,1.2,3,2.3,4.3c0.8,1.1,1.8,2.1,2.7,3c2,1.9,4.2,3.6,6.5,5.1c0.2,0.1,0.5,0.2,0.7,0.3v0.4c-0.1,0-0.3,0-0.4,0h-6.3
	c-0.1-0.2-0.1-0.5-0.3-0.6c-0.9-0.7-1.9-1.4-2.9-2.1c-0.4-0.4-0.9-0.5-1.4-0.5h-11.3c-0.3,0-0.5,0.1-0.8,0.2
	c-1.1,0.8-2.2,1.6-3.3,2.4c-0.1,0.1-0.2,0.4-0.2,0.6c-0.1,0.1-0.1,0-0.2,0h-6L179.2,80.3z M196.7,64.4c-0.3-0.5-0.5-1.1-0.8-1.6
	c-0.3,0.6-0.6,1.3-0.9,1.9c0-0.1-0.1-0.1-0.1-0.2c-1.1-0.1-2.2,0.1-3.3,0.6l0.5,0.9l2.3,0.2l-0.9,2.7h4.6l-0.2-0.7l-0.6-1.9l2.4-0.3
	l0.6-1C199.2,64.6,197.9,64.4,196.7,64.4L196.7,64.4z M194.7,60.5h2.5l-0.4-1.6h-1.7L194.7,60.5z M195.3,55.2h1.3v-2.3l-1.3,0.1
	V55.2z"/>
<path class="st5" d="M20.3,80c-0.2,0.1-0.3,0.1-0.5,0.2H11c-0.2,0-0.4-0.1-0.5-0.2c0.1-1.5,0.4-3,0.8-4.5c0.2-0.6,0.2-1.3,0.4-1.9
	c0.2-0.5,0.3-1.1,0.2-1.7c0-0.4-0.1-0.8-0.3-1.2c-0.1-0.4-0.4-0.9-0.5-1.2c0.2-0.1,0.5-0.1,0.7-0.3c-0.2-0.8-0.4-1.7-0.6-2.6
	l0.5-0.1c0-0.3-0.5-1.7-0.5-1.9c0-0.1,0.3,0,0.3,0c0.4-0.7,0-1.3-0.1-1.9c-0.1-0.2-0.2-0.4-0.4-0.7c0.2-0.1,0.5,0.1,0.8-0.2l-0.5-2
	l0.6-0.3c-0.1-0.4-0.3-0.7-0.4-1.1s-0.3-0.9-0.4-1.2c0.2-0.2,0.5-0.3,0.5-0.4C11.5,56.2,11,55.5,11,55c0-0.1,0.5-0.2,0.5-0.2
	c-0.1-0.9-0.2-1.7-0.3-2.6h2.1c-0.2-0.9,0.5-0.9,0.9-1.1L14,49.2l0.7-0.2c0-0.2-0.1-0.4-0.1-0.5c0.5-0.3,0.4-0.8,0.4-1.3v-3.7h0.8
	v0.8c0.1,1.5-0.3,3,0.4,4.3V49l0.6,0.2V51l0.6,0.3l0.2,0.9h2.2c-0.1,0.8-0.5,1.5-0.5,2.3c0.1,0.1,0.4,0,0.5,0.2
	c-0.1,0.7-0.4,1.5-0.6,2.1c0.2,0.1,0.4,0.1,0.5,0.1c-0.2,0.8-0.4,1.7-0.5,2.5c0.2,0.1,0.4,0.1,0.5,0.2c-0.2,0.7-0.4,1.5-0.6,2.4
	c0.2,0,0.5,0,0.7,0c-0.3,0.8-0.4,1.7-0.3,2.6c0,0.1,0.2,0.1,0.2,0.1c-0.1,0.6-0.2,1.3-0.5,1.8c0.1,0.1,0.4,0,0.5,0.2
	c0,0.1-0.1,0.2-0.1,0.4c-0.2,0.7-0.3,1.5-0.3,2.2c0,0.1,0.6,0.2,0.6,0.2c-0.2,0.7-0.5,1.2-0.7,1.9c0,0.3-0.3,0.5-0.2,0.8
	c0.2,1.1,0.4,2.2,0.7,3.3C20,76.9,20.2,78.5,20.3,80z"/>
<path class="st6" d="M157.3,43.8v2.2c-0.7,1.1-1.3,2.2-1.9,3.4v1.4c-1.1,0.6-0.6,1.6-0.4,2.5l-0.8,0.6v2l-0.5,0.7v2.3l-0.9,0.4
	c-0.1,1.1-0.1,2.2,0.1,3.3h-11.8v-3.2l-0.8-0.5v-2.2l-0.5-0.7v-2l-0.6-0.5c-0.1-0.8,0.7-1.9-0.5-2.5v-1.4c-0.6-1.2-1.2-2.3-1.9-3.4
	v-2.1h7.1v12.4h6.5V43.7C152.7,43.8,155,43.7,157.3,43.8z"/>
<path class="st6" d="M20.3,80c-0.1-1.6-0.3-3.1-0.7-4.7c-0.3-1.1-0.5-2.2-0.7-3.3c0-0.3,0.1-0.5,0.2-0.8c0.2-0.6,0.2-1.3,0.1-2
	c0-0.8,0.1-1.6,0.3-2.4c0-0.1,0-0.2,0-0.2l-0.3-0.2c0.5-1.4-0.2-2.9,0.3-4.2l-0.4-0.2l0.4-2.2l-0.4-0.4l0.4-2.3l-0.4-0.3l0.4-1.8
	l-0.3-0.4l0.2-2.3h-1.9l-0.2-0.9l-0.6-0.3v-1.9L16.1,49c0-0.1,0.1-0.2,0-0.3c-0.7-1.4-0.2-2.9-0.4-4.3v-0.8H28
	c0.1,0,0.1,0.1,0.3,0.1v9.4h-6.7v27L20.3,80z"/>
<path class="st2" d="M15,43.5v3.7c0,0.5,0.1,1-0.4,1.3l0.1,0.5L14,49.1l0.2,1.9c-0.4,0.2-1.1,0.2-0.9,1.1h-2.1
	c0.1,0.5,0.2,0.9,0.3,1.3c0,0.1,0.1,0.2,0.1,0.2c-0.2,1-0.2,2,0,3c0,0.1-0.2,0.3-0.4,0.5c0.1,0.3,0.2,0.7,0.3,1.2s0.2,0.7,0.4,1.1
	l-0.6,0.3l0.5,2l-0.5,0.5c0.1,0.1,0.1,0.2,0.1,0.3c0.1,0.6,0.5,1.2,0.1,1.9c-0.1,0.2,0.1,0.7,0.1,1s0.3,1-0.4,1.2l0.5,2.5l-0.5,0.5
	c0.1,0.4,0.2,0.7,0.4,1.1c0.4,0.9,0.4,2,0,2.9c-0.2,0.6-0.2,1.3-0.4,1.9c-0.4,1.5-0.6,3-0.7,4.5H9.7l-0.1-0.3V53.2H3
	c-0.3-3.2-0.3-6.3-0.1-9.5c0.1,0,0.1-0.1,0.2-0.1L15,43.5z"/>
<path class="st7" d="M247.4,80.4h-1.5V65.1c0,0,3.1-1.8,4.3-2.5c0.6-0.4,1.2-0.8,1.8-1.2v-15l0.9,0.2v-3.9h0.7
	c-0.1,0.6,0.5,0.4,0.7,0.8v4.2c1.1,0.7,3.6,2.1,3.8,2.2v30.4h-1.5c-0.1-0.2-3.7-2.6-4.3-3v3h-0.7v-3
	C250.1,78.3,248.7,79.3,247.4,80.4z M257.4,64.5v-5.6l-4.5,2.9L257.4,64.5z M246.7,66.3V72c1.5-1.1,3-1.8,4.4-2.9L246.7,66.3z
	 M252.9,76.8l4.4,2.8v-5.7L252.9,76.8z M246.7,73.9v5.7l4.4-2.8L246.7,73.9z M257.4,56.9v-5.6l-4.4,2.8L257.4,56.9z M257.4,72v-5.5
	c-1.5,0.8-3,1.7-4.4,2.8L257.4,72z M251.4,70.1l-4.4,2.8c1.4,1,2.9,1.9,4.4,2.7L251.4,70.1z M257,57.9l-4.4-2.7v5.5L257,57.9z
	 M251.4,62.7l-4.3,2.8l4.3,2.7V62.7z M252.6,68.2l4.3-2.7c-1.3-1.1-2.7-2-4.2-2.7L252.6,68.2z M257,73c-1.4-1-2.9-1.9-4.4-2.7v5.4
	L257,73z M252.7,47.6v5.4l4.4-2.7L252.7,47.6z"/>
<path class="st3" d="M252.9,42.8v3.8l-0.9-0.2v15c-0.6,0.4-1.2,0.8-1.8,1.2c-1.1,0.7-2.2,1.5-3.4,2.2c-0.3,0.1-0.6,0.2-0.9,0.3V43.2
	c0-0.2,0-0.3,0.1-0.5L252.9,42.8z"/>
<path class="st8" d="M78.2,68.4c1.3,0.5,2.3,1.6,2.6,3.1c0.2,1.4-0.4,2.9-1.6,3.7c0.7,0.6,1.8,1.4,2.1,1.7s2.2,1.9,2.6,2.3
	c0.4,0.4,1,0.7,1.6,0.7c0.5,0.1,1,0.3,1.4,0.6H66.2h-0.8c0.2-0.5,0.7-0.5,1.1-0.6c0.5,0,0.9-0.2,1.3-0.4c0.6-0.6,3.3-2.9,4-3.5
	c0.2-0.2,0.4-0.4,0.6-0.7c-0.2-0.3-0.4-0.5-0.6-0.8c-1.3-1.7-1-4.1,0.7-5.4c0.3-0.2,0.6-0.4,0.9-0.5c0,0.1-0.1,0.2-0.2,0.3h5
	L78.2,68.4z M73.3,79.9v-0.8l-1.9-1c-0.7,0.5-1.4,0.9-1.9,1.8L73.3,79.9z M78.7,79.9h3.8c-0.5-0.8-1.1-1.4-1.9-1.8l-1.9,1.1
	c0,0.1,0,0.3,0,0.4C78.7,79.7,78.7,79.8,78.7,79.9L78.7,79.9z"/>
<path class="st9" d="M250.4,22.4h2.6c1.3,0,2.6,0.5,3.6,1.2c0.8,0.7,1.5,1.4,2.2,2.1l0.8,1.5c0.1,0.7,0.2,1.5,0.2,2.2
	c0.1,1.3-0.1,2.7-0.5,3.9l-1,1c-0.3-1.3-0.9-2-1.9-2.1s-2.2,0-3.2,0l-1.3,2.1l-1-2.1h-2.2c-1.7,0-2.4,0.7-2.6,2.4
	c-0.3-0.3-0.6-0.6-0.8-0.9c-0.2-0.3-0.4-0.7-0.6-1c-0.3-1.2-0.4-2.5-0.3-3.8l0.3-1.8c0.4-0.5,0.7-1.1,1-1.7c0.6-1.1,1.8-1.6,2.6-2.5
	L250.4,22.4z M252,31.8c1.7-0.1,3.1-1.4,3.2-3.1c0-1.7-1.3-3.2-3-3.4c-1.7,0.2-3.1,1.5-3.2,3.2C249,30.2,250.3,31.6,252,31.8
	L252,31.8z"/>
<path class="st9" d="M216.7,34.8c0,0.8-0.4,1.5-1,2c-0.3-1.5-0.8-1.9-2.2-1.9h-5.8c-0.6,0-1.1,0.1-1.5,0.5c-0.4,0.5-0.6,1-0.6,1.6
	c-0.9-0.8-1.4-1.8-1.4-3c-0.1-1.1,0-2.2,0.3-3.3c0.9-2.4,3.2-4.1,5.8-4.1c1.4-0.1,2.8,0.3,4,1.1c1.7,1.1,2.7,2.9,2.6,4.9
	c0,0.3,0,0.7,0.1,1L216.7,34.8z M210.4,34.4c1.4,0,2.6-1.1,2.6-2.5c0-1.4-1.1-2.7-2.6-2.8c-1.4,0.2-2.4,1.3-2.6,2.7
	C207.9,33.2,209,34.3,210.4,34.4L210.4,34.4z"/>
<path class="st5" d="M76.2,43.8c-0.1,1-0.1,2.1,0.1,3.1c0.2,1-0.2,2.1,0.6,3l-0.2,2l1.3,1l-1,0.8v1.5l0.7,0.2L77,55.6
	c0.2,0.4,0.1,0.8,0.6,1c0.2,0.1,0.4,0.3,0.5,0.5c1.3,1.5,1.2,2.6,0,4c-0.2,0.2-0.3,0.3-0.5,0.4v4.1c0,0.4,0,0.9,0,1.3
	c-0.1-0.3-0.3-0.6-0.4-0.9c-0.4-1.1-0.8-2.1-1.3-3.3c-0.3,0.9-0.6,1.8-0.9,2.6c-0.2,0.5-0.7,1.4-0.9,1.9c0-1,0.1-2.4,0-3.4v-2.2
	c-0.3-0.2-0.5-0.4-0.8-0.6c-0.9-1.4-1-2.1,0-3.5c0.3-0.3,0.5-0.6,0.9-0.8l0.9-0.8l-0.8-0.3l0.7-0.2v-1.5l-1-0.7l1.3-0.9v-1.8
	c0.5-2.1,0.6-4.2,0.5-6.4H76.2z"/>
<path class="st10" d="M221.2,19c-0.8-0.7-1.3-1.8-1.2-2.8c0-0.7,0-1.5,0.2-2.2c0.5-1.7,1.8-3.1,3.5-3.6c1.9-0.7,3.9-0.3,5.5,0.9
	c1.2,0.9,2,2.3,2,3.9c0.1,1.3-0.2,2.5-0.8,3.6H230c-0.3-1.2-0.6-1.5-1.8-1.5h-5C221.7,17.3,221.4,17.6,221.2,19z M223.3,14.6
	c0,1.2,0.9,2.2,2.1,2.3c1.3,0.1,2.4-0.8,2.5-2.1c0.1-1.3-0.8-2.4-2.1-2.5s-2.4,0.8-2.5,2.1c0,0,0,0,0,0
	C223.3,14.5,223.3,14.5,223.3,14.6z"/>
<path class="st11" d="M216.7,34.8l0.2-1.2l6.5-0.1c2.1,0,4.1,0,6.2-0.1c2.6-0.1,5.2-0.1,7.8-0.2s4.9-0.3,7.4-0.5
	c0.2,0.3,0.4,0.7,0.6,1c0.2,0.3,0.5,0.6,0.8,0.9l0.2,0.6c-1.2,0-2.4-0.1-3.7-0.1s-2.4,0.1-3.6,0.1c-5.6-0.1-11.2-0.1-16.9-0.2
	C220.4,35,218.5,34.9,216.7,34.8z"/>
<path class="st12" d="M246.3,35.2l-0.2-0.6c0.1-1.7,0.8-2.4,2.6-2.4h2.2l1,2.1l1.3-2.1h3.2c1.1,0,1.6,0.8,1.9,2.1l-0.4,0.8
	c-1.3,1.6-3.3,2.5-5.4,2.6c-1.9,0.1-3.9-0.5-5.4-1.7C246.8,35.8,246.6,35.5,246.3,35.2z"/>
<path class="st10" d="M269.4,35.4c-0.1-1,0.2-2,0.8-2.8c0.7-1,1.7-1.8,2.9-2.1c2.7-0.8,5.6,0.6,6.5,3.3c0.2,0.9,0.2,1.8,0.2,2.7
	c0,0.8-0.4,1.6-1,2.1c-0.1-0.8-0.4-1.4-1.3-1.5h-6c-0.8,0.8-0.8,0.8-0.9,1.7c-0.7-0.5-1.1-1.3-1.1-2.2V35.4z M274.6,32.2
	c-1.2,0.1-2,1.1-2.1,2.2c-0.1,1.1,0.8,2,1.9,2.1c0,0,0.1,0,0.1,0l0,0c1.2,0,2.1-1,2.2-2.1C276.6,33.3,275.7,32.3,274.6,32.2z"/>
<path class="st12" d="M205.5,37c0-0.6,0.2-1.2,0.6-1.6c0.4-0.4,1-0.6,1.5-0.5h5.8c1.4,0,1.9,0.4,2.2,1.9c-0.9,1.5-2.4,2.4-4.1,2.6
	c-1.8,0.3-3.7-0.1-5.2-1.3C206.1,37.8,205.8,37.4,205.5,37z"/>
<path class="st10" d="M267.7,17.1c-1.6-1.9-1.4-4.8,0.6-6.4c0.5-0.4,1.1-0.7,1.7-0.9c2.4-0.8,4.9,0.5,5.7,2.9
	c0.1,0.4,0.2,0.9,0.2,1.3c0.1,1.1-0.2,2.2-0.9,3.1c-0.1-1.2-0.3-1.5-1.5-1.5h-4C268.2,15.6,268,15.8,267.7,17.1z M271.3,15.2
	c1-0.1,1.9-0.9,1.9-1.9c0.1-1-0.7-1.9-1.8-2s-1.9,0.7-2,1.8c0,0.1,0,0.2,0,0.3C269.5,14.4,270.3,15.2,271.3,15.2L271.3,15.2z"/>
<path class="st6" d="M162.1,58.9l-0.4-0.1v-2.6l-0.7-0.3v-2l-0.7-0.6v-2.2l-0.5-0.3v-1.5c-0.5-1.2-1.1-2.4-1.9-3.4v-2.2h4.2
	c0.1,0.1,0.1,0.2,0.1,0.2C162.1,48.9,162.1,53.9,162.1,58.9z"/>
<path class="st3" d="M141.3,80.3V69l2.4-1.4c0.2,4.2,0.1,8.3,0.2,12.6H141.3z"/>
<path class="st6" d="M136.2,43.8v2.2c-1.4,2-2.1,3.5-1.9,4.9l-0.5,0.3v2l-0.7,0.6v2l-0.7,0.4v2.1c0,0.2-0.1,0.4-0.2,0.6V43.8H136.2z
	"/>
<path class="st3" d="M150.4,67.8l2.4,1.2v11.3h-2.1l-0.3-0.1v-9C150.4,70.1,150.4,68.9,150.4,67.8z"/>
<path class="st11" d="M229.9,18.8h0.3l14.5,8.4l-0.3,1.8c-1.2-0.7-2.4-1.3-3.6-2c-2.1-1.3-4.2-2.6-6.2-3.9c-1.7-1.1-3.4-2.2-5-3.4
	L229.9,18.8z"/>
<path class="st12" d="M229.9,18.8l-0.4,0.9c-0.6,0.4-1.2,0.8-1.8,1.1c-2.1,0.9-4.5,0.5-6.2-1.1c-0.2-0.2-0.3-0.4-0.4-0.6
	c0.3-1.5,0.6-1.7,2-1.7h5C229.4,17.3,229.7,17.6,229.9,18.8z"/>
<path class="st9" d="M244.4,8.5c-1.4-1.7-1.2-4.2,0.5-5.6c0.4-0.4,0.9-0.6,1.5-0.8c2.1-0.6,4.3,0.6,5,2.7c0.4,1.2,0.2,2.5-0.6,3.5
	c-0.4-1-0.5-1.1-1.5-1.2s-2.1,0-3.2,0C244.7,7.1,244.6,7.2,244.4,8.5z M247.4,3.5c-1.3,0.6-1.7,1.3-1.4,2.2c0.2,0.7,0.9,1.1,1.6,1.1
	c0.8-0.1,1.4-0.7,1.5-1.5C249.1,4.4,248.6,3.8,247.4,3.5L247.4,3.5z"/>
<path class="st12" d="M270.6,38.7c0.1-0.9,0.1-0.9,0.9-1.7h6c0.9,0,1.2,0.7,1.3,1.5c-0.5,1-1.5,1.8-2.7,2
	C274.1,41.1,271.8,40.4,270.6,38.7z"/>
<path class="st6" d="M258.1,50c-0.2,0-0.4-0.1-0.6-0.2c-1-0.6-2-1.3-3.1-2v-4.2c-0.3-0.4-0.9-0.2-0.7-0.8h4.5L258.1,50z"/>
<path class="st13" d="M269.4,35.4v1.2c-2.4,0.1-4.8-0.1-7.2-0.6c-1.4-0.2-2.8-0.5-4.2-0.8l0.4-0.8l1-1c2.5,0.7,5,1.3,7.5,1.5
	C267.7,35,268.5,35.2,269.4,35.4z"/>
<path class="st12" d="M267.7,17.1c0.2-1.3,0.4-1.5,1.7-1.5h4c1.2,0,1.4,0.2,1.5,1.5c-1.8,1.9-3.6,2.2-6.3,1l-0.3-0.2L267.7,17.1z"/>
<path class="st13" d="M250.4,22.4l-2,0.6c-1-4.3-1.5-8.7-1.3-13.1h0.4C247.7,14.2,248.7,18.5,250.4,22.4z"/>
<path class="st12" d="M247.5,9.9h-0.4c-1.1-0.1-2.1-0.6-2.7-1.5c0.2-1.2,0.4-1.4,1.6-1.4h3.2c1.1,0,1.1,0.1,1.5,1.2
	C250,9.3,248.8,10,247.5,9.9z"/>
<path class="st13" d="M259.6,27.2l-0.8-1.5c2.4-1.3,4.7-2.9,6.9-4.7c0.1-0.1,2.8-3,2.9-3.1l0.2,0.2c-0.5,0.5-1.1,1.4-2.1,2.4
	c-1.6,1.7-3.7,3.8-4.6,4.7S260.4,26.6,259.6,27.2z"/>
<path class="st6" d="M246.9,80.4c0.1-0.1,0.5-0.3,0.6-0.4c1.3-0.9,2.7-1.7,4.1-2.6v3L246.9,80.4z"/>
<path class="st12" d="M201.5,77.1c0.5-0.1,1,0.1,1.4,0.5c1,0.7,1.9,1.4,2.9,2.1c0.2,0.1,0.2,0.4,0.3,0.6h-3.5L201.5,77.1z"/>
<path class="st12" d="M252.3,80.4v-3c0.7,0.4,1.1,0.6,1.5,0.8c0.8,0.5,2.7,1.9,2.9,2.1L252.3,80.4z"/>
<path class="st12" d="M185.9,80.3c0.1-0.2,0.1-0.5,0.2-0.6c1.1-0.8,2.2-1.6,3.3-2.4c0.2-0.1,0.5-0.2,0.8-0.2l-1.1,3.2H185.9z"/>
<path class="st12" d="M144.9,66.8l2-1.8l2.3,1.8H144.9z"/>
<path class="st5" d="M9.5,79.8l0.2,0.3L9.5,79.8z"/>
<path class="st1" d="M150.4,80.2l0.2,0.1C150.5,80.4,150.4,80.5,150.4,80.2z"/>
<path class="st12" d="M145.1,64.9c-1.1,1.1-2.5,1.6-3.8,2.8v-3h3.7L145.1,64.9z"/>
<path class="st12" d="M148.7,64.9c1.3-0.3,2.7-0.3,4.1-0.1v2.6C151.3,66.7,149.9,65.8,148.7,64.9z"/>
<path class="st12" d="M197.4,66.3l-0.7-1.9c1.3,0,2.5,0.2,3.7,0.6l-0.6,1L197.4,66.3z"/>
<path class="st12" d="M195.1,64.5c-0.2,0.5-0.4,1.2-0.6,1.8l-2.3-0.2c-0.2-0.2-0.4-0.8-0.7-1c1.1-0.4,2.2-0.6,3.4-0.5
	C195,64.5,195.1,64.5,195.1,64.5z"/>
<path class="st12" d="M194.7,60.5l0.4-1.6h1.8l0.4,1.6H194.7z"/>
<path class="st12" d="M195.3,55.2V53l1.3-0.1v2.3H195.3z"/>
<path class="st6" d="M257.4,64.5l-4.5-2.8l4.5-2.8V64.5z"/>
<path class="st6" d="M246.7,66.3l4.4,2.8c-1.5,1-2.9,1.8-4.4,2.9V66.3z"/>
<path class="st6" d="M252.9,76.8l4.4-2.9v5.7L252.9,76.8z"/>
<path class="st6" d="M246.7,73.9l4.4,2.8l-4.4,2.8V73.9z"/>
<path class="st6" d="M257.4,56.9l-4.4-2.8l4.4-2.8V56.9z"/>
<path class="st6" d="M257.4,72l-4.4-2.8c1.4-1,2.9-2,4.4-2.8V72z"/>
<path class="st6" d="M251.4,70.1v5.5c-1.5-0.8-3-1.7-4.4-2.7L251.4,70.1z"/>
<path class="st6" d="M257.1,57.9l-4.4,2.8v-5.5L257.1,57.9z"/>
<path class="st6" d="M251.4,62.7v5.5l-4.3-2.7C248.4,64.4,249.9,63.5,251.4,62.7z"/>
<path class="st6" d="M252.6,68.2v-5.4c1.5,0.7,3,1.6,4.3,2.7L252.6,68.2z"/>
<path class="st6" d="M257,73l-4.4,2.7v-5.4C254.2,71.1,255.6,72,257,73z"/>
<path class="st2" d="M252.7,47.6l4.4,2.7l-4.4,2.7V47.6z"/>
<path class="st12" d="M252,31.8c-1.7-0.1-3-1.6-3-3.2c0.1-1.7,1.5-3.1,3.2-3.3c1.7,0.2,3,1.7,3,3.4C255,30.3,253.7,31.7,252,31.8z"
	/>
<path class="st12" d="M210.4,34.4c-1.4-0.1-2.5-1.3-2.5-2.7c0.2-1.4,1.2-2.5,2.6-2.7c1.4,0.1,2.5,1.4,2.6,2.8
	C213,33.3,211.8,34.4,210.4,34.4z"/>
<path class="st12" d="M223.3,14.6c0.1-1.2,1.1-2.2,2.3-2.1c1.2,0.1,2.2,1.1,2.1,2.3c-0.1,1.2-1.1,2.2-2.3,2.1
	C224.2,16.8,223.3,15.8,223.3,14.6z"/>
<path class="st12" d="M274.6,32.2c1.2,0.1,2,1.1,2.1,2.2c-0.1,1.2-1,2.1-2.2,2.1c-1.1,0-2-0.9-2-2c0,0,0-0.1,0-0.1l0,0
	C272.5,33.3,273.4,32.3,274.6,32.2z"/>
<path class="st12" d="M271.3,15.2c-1,0-1.8-0.9-1.8-1.9c-0.1-1,0.7-1.9,1.7-2c1-0.1,1.9,0.7,2,1.7c0,0.1,0,0.2,0,0.3
	C273.1,14.4,272.3,15.2,271.3,15.2z"/>
<path class="st12" d="M247.3,3.4c1.3,0.4,1.8,1,1.7,1.9c-0.1,0.8-0.7,1.4-1.5,1.5c-0.7,0-1.4-0.4-1.6-1.1
	C245.6,4.8,246,4.1,247.3,3.4z"/>
</svg>
